<?xml version="1.0" encoding="UTF-8" standalone="no"?>
<!DOCTYPE svg PUBLIC "-//W3C//DTD SVG 1.1//EN"
 "http://www.w3.org/Graphics/SVG/1.1/DTD/svg11.dtd">
<!-- Generated by graphviz version 2.43.0 (0)
 -->
<!-- Title: DSF/sim/block.h Pages: 1 -->
<svg width="569pt" height="203pt"
 viewBox="0.00 0.00 569.04 203.00" xmlns="http://www.w3.org/2000/svg" xmlns:xlink="http://www.w3.org/1999/xlink">
<g id="graph0" class="graph" transform="scale(1 1) rotate(0) translate(4 199)">
<title>DSF/sim/block.h</title>
<!-- Node1 -->
<g id="Node000001" class="node">
<title>Node1</title>
<g id="a_Node000001"><a xlink:title="Base class for all simulation components in the DSF framework.">
<polygon fill="#999999" stroke="#666666" points="315.54,-195 220.54,-195 220.54,-176 315.54,-176 315.54,-195"/>
<text text-anchor="middle" x="268.04" y="-183" font-family="Helvetica,sans-Serif" font-size="10.00">DSF/sim/block.h</text>
</a>
</g>
</g>
<!-- Node2 -->
<g id="Node000002" class="node">
<title>Node2</title>
<g id="a_Node000002"><a xlink:href="integratorRK4_8cpp.html" target="_top" xlink:title=" ">
<polygon fill="white" stroke="#666666" points="276.04,-19 128.04,-19 128.04,0 276.04,0 276.04,-19"/>
<text text-anchor="middle" x="202.04" y="-7" font-family="Helvetica,sans-Serif" font-size="10.00">DSF/sim/integratorRK4.cpp</text>
</a>
</g>
</g>
<!-- Node1&#45;&gt;Node2 -->
<g id="edge1_Node000001_Node000002" class="edge">
<title>Node1&#45;&gt;Node2</title>
<g id="a_edge1_Node000001_Node000002"><a xlink:title=" ">
<path fill="none" stroke="#63b8ff" d="M210.36,-182.85C142.53,-179.55 36.01,-169.66 11.04,-140 -39.14,-80.39 97.19,-36.6 165.58,-19.01"/>
<polygon fill="#63b8ff" stroke="#63b8ff" points="210.33,-186.35 220.48,-183.31 210.65,-179.36 210.33,-186.35"/>
</a>
</g>
</g>
<!-- Node3 -->
<g id="Node000003" class="node">
<title>Node3</title>
<g id="a_Node000003"><a xlink:href="integrator__rk45_8cpp.html" target="_top" xlink:title=" ">
<polygon fill="white" stroke="#666666" points="128.04,-140 20.04,-140 20.04,-110 128.04,-110 128.04,-140"/>
<text text-anchor="start" x="28.04" y="-128" font-family="Helvetica,sans-Serif" font-size="10.00">DSF/sim/integrator</text>
<text text-anchor="middle" x="74.04" y="-117" font-family="Helvetica,sans-Serif" font-size="10.00">_rk45.cpp</text>
</a>
</g>
</g>
<!-- Node1&#45;&gt;Node3 -->
<g id="edge2_Node000001_Node000003" class="edge">
<title>Node1&#45;&gt;Node3</title>
<g id="a_edge2_Node000001_Node000003"><a xlink:title=" ">
<path fill="none" stroke="#63b8ff" d="M230.16,-173.08C198.83,-163.63 154.21,-150.17 120.68,-140.06"/>
<polygon fill="#63b8ff" stroke="#63b8ff" points="229.25,-176.46 239.83,-175.99 231.27,-169.76 229.25,-176.46"/>
</a>
</g>
</g>
<!-- Node4 -->
<g id="Node000004" class="node">
<title>Node4</title>
<g id="a_Node000004"><a xlink:href="integrator__verlet_8cpp.html" target="_top" xlink:title=" ">
<polygon fill="white" stroke="#666666" points="254.04,-140 146.04,-140 146.04,-110 254.04,-110 254.04,-140"/>
<text text-anchor="start" x="154.04" y="-128" font-family="Helvetica,sans-Serif" font-size="10.00">DSF/sim/integrator</text>
<text text-anchor="middle" x="200.04" y="-117" font-family="Helvetica,sans-Serif" font-size="10.00">_verlet.cpp</text>
</a>
</g>
</g>
<!-- Node1&#45;&gt;Node4 -->
<g id="edge3_Node000001_Node000004" class="edge">
<title>Node1&#45;&gt;Node4</title>
<g id="a_edge3_Node000001_Node000004"><a xlink:title=" ">
<path fill="none" stroke="#63b8ff" d="M250.3,-169.23C239.83,-160.23 226.67,-148.91 216.45,-140.11"/>
<polygon fill="#63b8ff" stroke="#63b8ff" points="248.15,-172 258.01,-175.87 252.71,-166.69 248.15,-172"/>
</a>
</g>
</g>
<!-- Node5 -->
<g id="Node000005" class="node">
<title>Node5</title>
<g id="a_Node000005"><a xlink:href="monte__carlo_8h.html" target="_top" xlink:title="Monte Carlo dispersion engine for DSF simulations.">
<polygon fill="white" stroke="#666666" points="402.04,-134.5 272.04,-134.5 272.04,-115.5 402.04,-115.5 402.04,-134.5"/>
<text text-anchor="middle" x="337.04" y="-122.5" font-family="Helvetica,sans-Serif" font-size="10.00">DSF/sim/monte_carlo.h</text>
</a>
</g>
</g>
<!-- Node1&#45;&gt;Node5 -->
<g id="edge4_Node000001_Node000005" class="edge">
<title>Node1&#45;&gt;Node5</title>
<g id="a_edge4_Node000001_Node000005"><a xlink:title=" ">
<path fill="none" stroke="#63b8ff" d="M286.06,-169.22C299.05,-158.21 316.1,-143.75 326.82,-134.67"/>
<polygon fill="#63b8ff" stroke="#63b8ff" points="283.59,-166.73 278.22,-175.87 288.11,-172.07 283.59,-166.73"/>
</a>
</g>
</g>
<!-- Node6 -->
<g id="Node000006" class="node">
<title>Node6</title>
<g id="a_Node000006"><a xlink:href="output_8h.html" target="_top" xlink:title="CSV output handler for simulation telemetry.">
<polygon fill="white" stroke="#666666" points="521.54,-134.5 420.54,-134.5 420.54,-115.5 521.54,-115.5 521.54,-134.5"/>
<text text-anchor="middle" x="471.04" y="-122.5" font-family="Helvetica,sans-Serif" font-size="10.00">DSF/sim/output.h</text>
</a>
</g>
</g>
<!-- Node1&#45;&gt;Node6 -->
<g id="edge5_Node000001_Node000006" class="edge">
<title>Node1&#45;&gt;Node6</title>
<g id="a_edge5_Node000001_Node000006"><a xlink:title=" ">
<path fill="none" stroke="#63b8ff" d="M307.32,-173.18C346.59,-161.87 406.07,-144.72 441.49,-134.52"/>
<polygon fill="#63b8ff" stroke="#63b8ff" points="306.2,-169.86 297.56,-175.99 308.14,-176.59 306.2,-169.86"/>
</a>
</g>
</g>
<!-- Node9 -->
<g id="Node000009" class="node">
<title>Node9</title>
<g id="a_Node000009"><a xlink:href="sim_8cpp.html" target="_top" xlink:title=" ">
<polygon fill="white" stroke="#666666" points="561.04,-19 463.04,-19 463.04,0 561.04,0 561.04,-19"/>
<text text-anchor="middle" x="512.04" y="-7" font-family="Helvetica,sans-Serif" font-size="10.00">DSF/sim/sim.cpp</text>
</a>
</g>
</g>
<!-- Node1&#45;&gt;Node9 -->
<g id="edge10_Node000001_Node000009" class="edge">
<title>Node1&#45;&gt;Node9</title>
<g id="a_edge10_Node000001_Node000009"><a xlink:title=" ">
<path fill="none" stroke="#63b8ff" d="M325.91,-183.1C395.24,-180.07 505.31,-170.45 531.04,-140 561.26,-104.25 530.54,-42.18 517.39,-19.3"/>
<polygon fill="#63b8ff" stroke="#63b8ff" points="325.42,-179.62 315.57,-183.52 325.7,-186.62 325.42,-179.62"/>
</a>
</g>
</g>
<!-- Node7 -->
<g id="Node000007" class="node">
<title>Node7</title>
<g id="a_Node000007"><a xlink:href="output_8cpp.html" target="_top" xlink:title=" ">
<polygon fill="white" stroke="#666666" points="412.04,-74 300.04,-74 300.04,-55 412.04,-55 412.04,-74"/>
<text text-anchor="middle" x="356.04" y="-62" font-family="Helvetica,sans-Serif" font-size="10.00">DSF/sim/output.cpp</text>
</a>
</g>
</g>
<!-- Node6&#45;&gt;Node7 -->
<g id="edge6_Node000006_Node000007" class="edge">
<title>Node6&#45;&gt;Node7</title>
<g id="a_edge6_Node000006_Node000007"><a xlink:title=" ">
<path fill="none" stroke="#63b8ff" d="M444.95,-110.73C422.93,-99.53 392.05,-83.82 373.08,-74.17"/>
<polygon fill="#63b8ff" stroke="#63b8ff" points="443.57,-113.95 454.07,-115.37 446.75,-107.71 443.57,-113.95"/>
</a>
</g>
</g>
<!-- Node8 -->
<g id="Node000008" class="node">
<title>Node8</title>
<g id="a_Node000008"><a xlink:href="sim_8h.html" target="_top" xlink:title="Top&#45;level simulation executive.">
<polygon fill="white" stroke="#666666" points="517.54,-74 430.54,-74 430.54,-55 517.54,-55 517.54,-74"/>
<text text-anchor="middle" x="474.04" y="-62" font-family="Helvetica,sans-Serif" font-size="10.00">DSF/sim/sim.h</text>
</a>
</g>
</g>
<!-- Node6&#45;&gt;Node8 -->
<g id="edge7_Node000006_Node000008" class="edge">
<title>Node6&#45;&gt;Node8</title>
<g id="a_edge7_Node000006_Node000008"><a xlink:title=" ">
<path fill="none" stroke="#63b8ff" d="M472.01,-105.16C472.54,-94.74 473.18,-82.3 473.6,-74.17"/>
<polygon fill="#63b8ff" stroke="#63b8ff" points="468.5,-105.2 471.49,-115.37 475.49,-105.56 468.5,-105.2"/>
</a>
</g>
</g>
<!-- Node8&#45;&gt;Node2 -->
<g id="edge8_Node000008_Node000002" class="edge">
<title>Node8&#45;&gt;Node2</title>
<g id="a_edge8_Node000008_Node000002"><a xlink:title=" ">
<path fill="none" stroke="#63b8ff" d="M420.49,-53.07C369.5,-43.13 293.67,-28.35 246.09,-19.08"/>
<polygon fill="#63b8ff" stroke="#63b8ff" points="419.86,-56.51 430.34,-54.98 421.19,-49.64 419.86,-56.51"/>
</a>
</g>
</g>
<!-- Node8&#45;&gt;Node9 -->
<g id="edge9_Node000008_Node000009" class="edge">
<title>Node8&#45;&gt;Node9</title>
<g id="a_edge9_Node000008_Node000009"><a xlink:title=" ">
<path fill="none" stroke="#63b8ff" d="M486.31,-46.39C492.85,-37.27 500.61,-26.45 505.88,-19.09"/>
<polygon fill="#63b8ff" stroke="#63b8ff" points="483.3,-44.58 480.32,-54.75 488.99,-48.66 483.3,-44.58"/>
</a>
</g>
</g>
</g>
</svg>
