<?xml version="1.0" encoding="UTF-8" standalone="no"?>
<!DOCTYPE svg PUBLIC "-//W3C//DTD SVG 1.1//EN"
 "http://www.w3.org/Graphics/SVG/1.1/DTD/svg11.dtd">
<!-- Generated by graphviz version 2.43.0 (0)
 -->
<!-- Title: dsf::sim::TClass&lt; DClass, BClass &gt; Pages: 1 -->
<svg width="1053pt" height="133pt"
 viewBox="0.00 0.00 1053.00 132.50" xmlns="http://www.w3.org/2000/svg" xmlns:xlink="http://www.w3.org/1999/xlink">
<g id="graph0" class="graph" transform="scale(1 1) rotate(0) translate(4 128.5)">
<title>dsf::sim::TClass&lt; DClass, BClass &gt;</title>
<!-- Node1 -->
<g id="Node000001" class="node">
<title>Node1</title>
<g id="a_Node000001"><a xlink:title="Typed class factory for automatic registration.">
<polygon fill="#999999" stroke="#666666" points="1045,-79.5 905,-79.5 905,-49.5 1045,-49.5 1045,-79.5"/>
<text text-anchor="start" x="913" y="-67.5" font-family="Helvetica,sans-Serif" font-size="10.00">dsf::sim::TClass&lt; DClass,</text>
<text text-anchor="middle" x="975" y="-56.5" font-family="Helvetica,sans-Serif" font-size="10.00"> BClass &gt;</text>
</a>
</g>
</g>
<!-- Node2 -->
<g id="Node000002" class="node">
<title>Node2</title>
<g id="a_Node000002"><a xlink:href="classdsf_1_1sim_1_1TClassBase.html" target="_top" xlink:title="Base class for type&#45;erased class factories.">
<polygon fill="white" stroke="#666666" points="868,-79.5 752,-79.5 752,-49.5 868,-49.5 868,-79.5"/>
<text text-anchor="start" x="760" y="-67.5" font-family="Helvetica,sans-Serif" font-size="10.00">dsf::sim::TClassBase</text>
<text text-anchor="middle" x="810" y="-56.5" font-family="Helvetica,sans-Serif" font-size="10.00">&lt; BClass &gt;</text>
</a>
</g>
</g>
<!-- Node2&#45;&gt;Node1 -->
<g id="edge1_Node000001_Node000002" class="edge">
<title>Node2&#45;&gt;Node1</title>
<g id="a_edge1_Node000001_Node000002"><a xlink:title=" ">
<path fill="none" stroke="#63b8ff" d="M878.24,-64.5C887.06,-64.5 896.12,-64.5 904.97,-64.5"/>
<polygon fill="#63b8ff" stroke="#63b8ff" points="878.01,-61 868.01,-64.5 878.01,-68 878.01,-61"/>
</a>
</g>
</g>
<!-- Node3 -->
<g id="Node000003" class="node">
<title>Node3</title>
<g id="a_Node000003"><a xlink:title=" ">
<polygon fill="white" stroke="#666666" points="206,-74 141,-74 141,-55 206,-55 206,-74"/>
<text text-anchor="middle" x="173.5" y="-62" font-family="Helvetica,sans-Serif" font-size="10.00">std::string</text>
</a>
</g>
</g>
<!-- Node3&#45;&gt;Node2 -->
<g id="edge2_Node000002_Node000003" class="edge">
<title>Node3&#45;&gt;Node2</title>
<g id="a_edge2_Node000002_Node000003"><a xlink:title=" ">
<path fill="none" stroke="#9a32cd" stroke-dasharray="5,2" d="M188.18,-82.23C197.13,-92.31 209.78,-104 224,-109.5 250.95,-119.92 260.12,-110.31 289,-109.5 455.42,-104.83 497.21,-103.64 663,-88.5 694.68,-85.61 702.61,-84.62 734,-79.5 739.77,-78.56 745.77,-77.5 751.75,-76.39"/>
<polygon fill="#9a32cd" stroke="#9a32cd" points="190.67,-79.74 181.57,-74.3 185.29,-84.23 190.67,-79.74"/>
</a>
</g>
<text text-anchor="middle" x="498.5" y="-116.5" font-family="Helvetica,sans-Serif" font-size="10.00" fill="grey"> tBase</text>
<text text-anchor="middle" x="498.5" y="-105.5" font-family="Helvetica,sans-Serif" font-size="10.00" fill="grey">tDerived</text>
</g>
<!-- Node6 -->
<g id="Node000006" class="node">
<title>Node6</title>
<g id="a_Node000006"><a xlink:href="structdsf_1_1sim_1_1PropertyMetadata.html" target="_top" xlink:title="Metadata for a block property.">
<polygon fill="white" stroke="#666666" points="456,-74 307,-74 307,-55 456,-55 456,-74"/>
<text text-anchor="middle" x="381.5" y="-62" font-family="Helvetica,sans-Serif" font-size="10.00">dsf::sim::PropertyMetadata</text>
</a>
</g>
</g>
<!-- Node3&#45;&gt;Node6 -->
<g id="edge6_Node000006_Node000003" class="edge">
<title>Node3&#45;&gt;Node6</title>
<g id="a_edge6_Node000006_Node000003"><a xlink:title=" ">
<path fill="none" stroke="#9a32cd" stroke-dasharray="5,2" d="M216.48,-64.5C242.44,-64.5 276.49,-64.5 306.83,-64.5"/>
<polygon fill="#9a32cd" stroke="#9a32cd" points="216.24,-61 206.24,-64.5 216.24,-68 216.24,-61"/>
</a>
</g>
<text text-anchor="middle" x="256.5" y="-100.5" font-family="Helvetica,sans-Serif" font-size="10.00" fill="grey"> defaultValue</text>
<text text-anchor="middle" x="256.5" y="-89.5" font-family="Helvetica,sans-Serif" font-size="10.00" fill="grey">description</text>
<text text-anchor="middle" x="256.5" y="-78.5" font-family="Helvetica,sans-Serif" font-size="10.00" fill="grey">name</text>
<text text-anchor="middle" x="256.5" y="-67.5" font-family="Helvetica,sans-Serif" font-size="10.00" fill="grey">type</text>
</g>
<!-- Node8 -->
<g id="Node000008" class="node">
<title>Node8</title>
<g id="a_Node000008"><a xlink:href="structdsf_1_1sim_1_1PortMetadata.html" target="_top" xlink:title="Metadata for a block port.">
<polygon fill="white" stroke="#666666" points="445,-19 318,-19 318,0 445,0 445,-19"/>
<text text-anchor="middle" x="381.5" y="-7" font-family="Helvetica,sans-Serif" font-size="10.00">dsf::sim::PortMetadata</text>
</a>
</g>
</g>
<!-- Node3&#45;&gt;Node8 -->
<g id="edge9_Node000008_Node000003" class="edge">
<title>Node3&#45;&gt;Node8</title>
<g id="a_edge9_Node000008_Node000003"><a xlink:title=" ">
<path fill="none" stroke="#9a32cd" stroke-dasharray="5,2" d="M191.84,-47.95C200.76,-40.43 212.21,-32.18 224,-27.5 253.48,-15.79 288.38,-10.99 317.73,-9.25"/>
<polygon fill="#9a32cd" stroke="#9a32cd" points="189.28,-45.54 184.14,-54.8 193.94,-50.77 189.28,-45.54"/>
</a>
</g>
<text text-anchor="middle" x="256.5" y="-52.5" font-family="Helvetica,sans-Serif" font-size="10.00" fill="grey"> direction</text>
<text text-anchor="middle" x="256.5" y="-41.5" font-family="Helvetica,sans-Serif" font-size="10.00" fill="grey">name</text>
<text text-anchor="middle" x="256.5" y="-30.5" font-family="Helvetica,sans-Serif" font-size="10.00" fill="grey">type</text>
</g>
<!-- Node4 -->
<g id="Node000004" class="node">
<title>Node4</title>
<g id="a_Node000004"><a xlink:title=" ">
<polygon fill="white" stroke="#666666" points="104,-79.5 0,-79.5 0,-49.5 104,-49.5 104,-79.5"/>
<text text-anchor="start" x="8" y="-67.5" font-family="Helvetica,sans-Serif" font-size="10.00">std::basic_string&lt;</text>
<text text-anchor="middle" x="52" y="-56.5" font-family="Helvetica,sans-Serif" font-size="10.00"> Char &gt;</text>
</a>
</g>
</g>
<!-- Node4&#45;&gt;Node3 -->
<g id="edge3_Node000003_Node000004" class="edge">
<title>Node4&#45;&gt;Node3</title>
<g id="a_edge3_Node000003_Node000004"><a xlink:title=" ">
<path fill="none" stroke="#63b8ff" d="M114.1,-64.5C123.41,-64.5 132.68,-64.5 141,-64.5"/>
<polygon fill="#63b8ff" stroke="#63b8ff" points="114.03,-61 104.03,-64.5 114.03,-68 114.03,-61"/>
</a>
</g>
</g>
<!-- Node5 -->
<g id="Node000005" class="node">
<title>Node5</title>
<g id="a_Node000005"><a xlink:title=" ">
<polygon fill="white" stroke="#666666" points="663,-79.5 541,-79.5 541,-49.5 663,-49.5 663,-79.5"/>
<text text-anchor="start" x="549" y="-67.5" font-family="Helvetica,sans-Serif" font-size="10.00">std::vector&lt; dsf::sim</text>
<text text-anchor="middle" x="602" y="-56.5" font-family="Helvetica,sans-Serif" font-size="10.00">::PropertyMetadata &gt;</text>
</a>
</g>
</g>
<!-- Node5&#45;&gt;Node2 -->
<g id="edge4_Node000002_Node000005" class="edge">
<title>Node5&#45;&gt;Node2</title>
<g id="a_edge4_Node000002_Node000005"><a xlink:title=" ">
<path fill="none" stroke="#9a32cd" stroke-dasharray="5,2" d="M673.19,-64.5C698.86,-64.5 727.58,-64.5 751.97,-64.5"/>
<polygon fill="#9a32cd" stroke="#9a32cd" points="673.14,-61 663.14,-64.5 673.14,-68 673.14,-61"/>
</a>
</g>
<text text-anchor="middle" x="707.5" y="-67.5" font-family="Helvetica,sans-Serif" font-size="10.00" fill="grey"> properties</text>
</g>
<!-- Node6&#45;&gt;Node5 -->
<g id="edge5_Node000005_Node000006" class="edge">
<title>Node6&#45;&gt;Node5</title>
<g id="a_edge5_Node000005_Node000006"><a xlink:title=" ">
<path fill="none" stroke="#9a32cd" stroke-dasharray="5,2" d="M466.3,-64.5C491.08,-64.5 517.72,-64.5 540.71,-64.5"/>
<polygon fill="#9a32cd" stroke="#9a32cd" points="466.17,-61 456.17,-64.5 466.17,-68 466.17,-61"/>
</a>
</g>
<text text-anchor="middle" x="498.5" y="-67.5" font-family="Helvetica,sans-Serif" font-size="10.00" fill="grey"> elements</text>
</g>
<!-- Node7 -->
<g id="Node000007" class="node">
<title>Node7</title>
<g id="a_Node000007"><a xlink:title=" ">
<polygon fill="white" stroke="#666666" points="661,-30.5 543,-30.5 543,-0.5 661,-0.5 661,-30.5"/>
<text text-anchor="start" x="551" y="-18.5" font-family="Helvetica,sans-Serif" font-size="10.00">std::vector&lt; dsf::sim</text>
<text text-anchor="middle" x="602" y="-7.5" font-family="Helvetica,sans-Serif" font-size="10.00">::PortMetadata &gt;</text>
</a>
</g>
</g>
<!-- Node7&#45;&gt;Node2 -->
<g id="edge7_Node000002_Node000007" class="edge">
<title>Node7&#45;&gt;Node2</title>
<g id="a_edge7_Node000002_Node000007"><a xlink:title=" ">
<path fill="none" stroke="#9a32cd" stroke-dasharray="5,2" d="M671.03,-31.68C697.13,-37.89 726.64,-44.91 751.65,-50.86"/>
<polygon fill="#9a32cd" stroke="#9a32cd" points="671.74,-28.25 661.21,-29.34 670.12,-35.06 671.74,-28.25"/>
</a>
</g>
<text text-anchor="middle" x="707.5" y="-49.5" font-family="Helvetica,sans-Serif" font-size="10.00" fill="grey"> ports</text>
</g>
<!-- Node8&#45;&gt;Node7 -->
<g id="edge8_Node000007_Node000008" class="edge">
<title>Node8&#45;&gt;Node7</title>
<g id="a_edge8_Node000007_Node000008"><a xlink:title=" ">
<path fill="none" stroke="#9a32cd" stroke-dasharray="5,2" d="M455.41,-11.5C483.86,-12.28 516.03,-13.17 542.87,-13.9"/>
<polygon fill="#9a32cd" stroke="#9a32cd" points="455.21,-8 445.11,-11.22 455.01,-14.99 455.21,-8"/>
</a>
</g>
<text text-anchor="middle" x="498.5" y="-16.5" font-family="Helvetica,sans-Serif" font-size="10.00" fill="grey"> elements</text>
</g>
</g>
</svg>
