<?xml version="1.0" encoding="UTF-8" standalone="no"?>
<!DOCTYPE svg PUBLIC "-//W3C//DTD SVG 1.1//EN"
 "http://www.w3.org/Graphics/SVG/1.1/DTD/svg11.dtd">
<!-- Generated by graphviz version 2.43.0 (0)
 -->
<!-- Title: dsf::sim::Event Pages: 1 -->
<svg width="642pt" height="222pt"
 viewBox="0.00 0.00 642.00 221.50" xmlns="http://www.w3.org/2000/svg" xmlns:xlink="http://www.w3.org/1999/xlink">
<g id="graph0" class="graph" transform="scale(1 1) rotate(0) translate(4 217.5)">
<title>dsf::sim::Event</title>
<!-- Node1 -->
<g id="Node000001" class="node">
<title>Node1</title>
<g id="a_Node000001"><a xlink:title="An event: condition + action.">
<polygon fill="#999999" stroke="#666666" points="619.5,-65 530.5,-65 530.5,-46 619.5,-46 619.5,-65"/>
<text text-anchor="middle" x="575" y="-53" font-family="Helvetica,sans-Serif" font-size="10.00">dsf::sim::Event</text>
</a>
</g>
</g>
<!-- Node2 -->
<g id="Node000002" class="node">
<title>Node2</title>
<g id="a_Node000002"><a xlink:title=" ">
<polygon fill="white" stroke="#666666" points="217.5,-93 152.5,-93 152.5,-74 217.5,-74 217.5,-93"/>
<text text-anchor="middle" x="185" y="-81" font-family="Helvetica,sans-Serif" font-size="10.00">std::string</text>
</a>
</g>
</g>
<!-- Node2&#45;&gt;Node1 -->
<g id="edge1_Node000001_Node000002" class="edge">
<title>Node2&#45;&gt;Node1</title>
<g id="a_edge1_Node000001_Node000002"><a xlink:title=" ">
<path fill="none" stroke="#9a32cd" stroke-dasharray="5,2" d="M228.1,-80.46C302.22,-75.11 455.29,-64.07 530.44,-58.64"/>
<polygon fill="#9a32cd" stroke="#9a32cd" points="227.47,-77 217.75,-81.21 227.98,-83.98 227.47,-77"/>
</a>
</g>
<text text-anchor="middle" x="363.5" y="-77.5" font-family="Helvetica,sans-Serif" font-size="10.00" fill="grey"> name</text>
</g>
<!-- Node5 -->
<g id="Node000005" class="node">
<title>Node5</title>
<g id="a_Node000005"><a xlink:href="classdsf_1_1sim_1_1Block.html" target="_top" xlink:title="Base class for all simulation model blocks.">
<polygon fill="white" stroke="#666666" points="407.5,-145 319.5,-145 319.5,-126 407.5,-126 407.5,-145"/>
<text text-anchor="middle" x="363.5" y="-133" font-family="Helvetica,sans-Serif" font-size="10.00">dsf::sim::Block</text>
</a>
</g>
</g>
<!-- Node2&#45;&gt;Node5 -->
<g id="edge11_Node000005_Node000002" class="edge">
<title>Node2&#45;&gt;Node5</title>
<g id="a_edge11_Node000005_Node000002"><a xlink:title=" ">
<path fill="none" stroke="#9a32cd" stroke-dasharray="5,2" d="M227.3,-95.67C258.63,-104.9 301.1,-117.41 330.02,-125.93"/>
<polygon fill="#9a32cd" stroke="#9a32cd" points="228.14,-92.27 217.55,-92.8 226.16,-98.98 228.14,-92.27"/>
</a>
</g>
<text text-anchor="middle" x="262.5" y="-112.5" font-family="Helvetica,sans-Serif" font-size="10.00" fill="grey"> name</text>
</g>
<!-- Node3 -->
<g id="Node000003" class="node">
<title>Node3</title>
<g id="a_Node000003"><a xlink:title=" ">
<polygon fill="white" stroke="#666666" points="104,-98.5 0,-98.5 0,-68.5 104,-68.5 104,-98.5"/>
<text text-anchor="start" x="8" y="-86.5" font-family="Helvetica,sans-Serif" font-size="10.00">std::basic_string&lt;</text>
<text text-anchor="middle" x="52" y="-75.5" font-family="Helvetica,sans-Serif" font-size="10.00"> Char &gt;</text>
</a>
</g>
</g>
<!-- Node3&#45;&gt;Node2 -->
<g id="edge2_Node000002_Node000003" class="edge">
<title>Node3&#45;&gt;Node2</title>
<g id="a_edge2_Node000002_Node000003"><a xlink:title=" ">
<path fill="none" stroke="#63b8ff" d="M114.04,-83.5C127.24,-83.5 140.68,-83.5 152.21,-83.5"/>
<polygon fill="#63b8ff" stroke="#63b8ff" points="114.02,-80 104.02,-83.5 114.02,-87 114.02,-80"/>
</a>
</g>
</g>
<!-- Node4 -->
<g id="Node000004" class="node">
<title>Node4</title>
<g id="a_Node000004"><a xlink:href="structdsf_1_1sim_1_1EventCondition.html" target="_top" xlink:title="Condition that monitors a variable.">
<polygon fill="white" stroke="#666666" points="431,-19 296,-19 296,0 431,0 431,-19"/>
<text text-anchor="middle" x="363.5" y="-7" font-family="Helvetica,sans-Serif" font-size="10.00">dsf::sim::EventCondition</text>
</a>
</g>
</g>
<!-- Node4&#45;&gt;Node1 -->
<g id="edge3_Node000001_Node000004" class="edge">
<title>Node4&#45;&gt;Node1</title>
<g id="a_edge3_Node000001_Node000004"><a xlink:title=" ">
<path fill="none" stroke="#9a32cd" stroke-dasharray="5,2" d="M441.09,-19.37C459.82,-22.38 479.73,-26.09 498,-30.5 515.01,-34.61 533.69,-40.73 548.27,-45.88"/>
<polygon fill="#9a32cd" stroke="#9a32cd" points="441.54,-15.9 431.12,-17.81 440.46,-22.82 441.54,-15.9"/>
</a>
</g>
<text text-anchor="middle" x="473.5" y="-33.5" font-family="Helvetica,sans-Serif" font-size="10.00" fill="grey"> condition</text>
</g>
<!-- Node5&#45;&gt;Node1 -->
<g id="edge4_Node000001_Node000005" class="edge">
<title>Node5&#45;&gt;Node1</title>
<g id="a_edge4_Node000001_Node000005"><a xlink:title=" ">
<path fill="none" stroke="#9a32cd" stroke-dasharray="5,2" d="M399.36,-122.19C441.6,-106.06 511.73,-79.28 548.97,-65.06"/>
<polygon fill="#9a32cd" stroke="#9a32cd" points="397.86,-119.01 389.77,-125.85 400.36,-125.55 397.86,-119.01"/>
</a>
</g>
<text text-anchor="middle" x="473.5" y="-105.5" font-family="Helvetica,sans-Serif" font-size="10.00" fill="grey"> owner</text>
</g>
<!-- Node5&#45;&gt;Node5 -->
<g id="edge7_Node000005_Node000005" class="edge">
<title>Node5&#45;&gt;Node5</title>
<g id="a_edge7_Node000005_Node000005"><a xlink:title=" ">
<path fill="none" stroke="#9a32cd" stroke-dasharray="5,2" d="M345.08,-154.91C346.53,-159.56 352.67,-163 363.5,-163 381.27,-163 386.41,-153.73 378.91,-145.08"/>
<polygon fill="#9a32cd" stroke="#9a32cd" points="348.51,-155.67 348.09,-145.08 341.82,-153.62 348.51,-155.67"/>
</a>
</g>
<text text-anchor="middle" x="363.5" y="-166" font-family="Helvetica,sans-Serif" font-size="10.00" fill="grey"> parent</text>
</g>
<!-- Node6 -->
<g id="Node000006" class="node">
<title>Node6</title>
<g id="a_Node000006"><a xlink:title=" ">
<polygon fill="white" stroke="#666666" points="634,-213.5 516,-213.5 516,-183.5 634,-183.5 634,-213.5"/>
<text text-anchor="start" x="524" y="-201.5" font-family="Helvetica,sans-Serif" font-size="10.00">std::vector&lt; dsf::sim</text>
<text text-anchor="middle" x="575" y="-190.5" font-family="Helvetica,sans-Serif" font-size="10.00">::Block * &gt;</text>
</a>
</g>
</g>
<!-- Node5&#45;&gt;Node6 -->
<g id="edge6_Node000006_Node000005" class="edge">
<title>Node5&#45;&gt;Node6</title>
<g id="a_edge6_Node000006_Node000005"><a xlink:title=" ">
<path fill="none" stroke="#9a32cd" stroke-dasharray="5,2" d="M384.05,-151.62C400.34,-164.06 424.73,-180.46 449,-188.5 470.18,-195.52 494.44,-198.52 515.92,-199.6"/>
<polygon fill="#9a32cd" stroke="#9a32cd" points="385.91,-148.63 375.89,-145.2 381.58,-154.13 385.91,-148.63"/>
</a>
</g>
<text text-anchor="middle" x="473.5" y="-200.5" font-family="Helvetica,sans-Serif" font-size="10.00" fill="grey"> elements</text>
</g>
<!-- Node7 -->
<g id="Node000007" class="node">
<title>Node7</title>
<g id="a_Node000007"><a xlink:href="classdsf_1_1sim_1_1Output.html" target="_top" xlink:title="CSV/HDF5 telemetry output handler.">
<polygon fill="white" stroke="#666666" points="622,-145 528,-145 528,-126 622,-126 622,-145"/>
<text text-anchor="middle" x="575" y="-133" font-family="Helvetica,sans-Serif" font-size="10.00">dsf::sim::Output</text>
</a>
</g>
</g>
<!-- Node5&#45;&gt;Node7 -->
<g id="edge9_Node000007_Node000005" class="edge">
<title>Node5&#45;&gt;Node7</title>
<g id="a_edge9_Node000007_Node000005"><a xlink:title=" ">
<path fill="none" stroke="#63b8ff" d="M417.88,-135.5C451.89,-135.5 495.51,-135.5 528,-135.5"/>
<polygon fill="#63b8ff" stroke="#63b8ff" points="417.65,-132 407.65,-135.5 417.65,-139 417.65,-132"/>
</a>
</g>
</g>
<!-- Node6&#45;&gt;Node5 -->
<g id="edge5_Node000005_Node000006" class="edge">
<title>Node6&#45;&gt;Node5</title>
<g id="a_edge5_Node000005_Node000006"><a xlink:title=" ">
<path fill="none" stroke="#9a32cd" stroke-dasharray="5,2" d="M513.88,-180.42C475.55,-168.9 427.42,-154.42 396.32,-145.07"/>
<polygon fill="#9a32cd" stroke="#9a32cd" points="513.32,-183.91 523.9,-183.43 515.33,-177.2 513.32,-183.91"/>
</a>
</g>
<text text-anchor="middle" x="473.5" y="-176.5" font-family="Helvetica,sans-Serif" font-size="10.00" fill="grey"> children</text>
</g>
<!-- Node7&#45;&gt;Node5 -->
<g id="edge8_Node000005_Node000007" class="edge">
<title>Node7&#45;&gt;Node5</title>
<g id="a_edge8_Node000005_Node000007"><a xlink:title=" ">
<path fill="none" stroke="#9a32cd" stroke-dasharray="5,2" d="M517.63,-125.6C511.03,-124.73 504.38,-124 498,-123.5 476.29,-121.8 470.72,-121.97 449,-123.5 435.55,-124.45 420.98,-126.24 407.8,-128.16"/>
<polygon fill="#9a32cd" stroke="#9a32cd" points="517.53,-129.12 527.92,-127.04 518.5,-122.18 517.53,-129.12"/>
</a>
</g>
<text text-anchor="middle" x="473.5" y="-126.5" font-family="Helvetica,sans-Serif" font-size="10.00" fill="grey"> o</text>
</g>
<!-- Node8 -->
<g id="Node000008" class="node">
<title>Node8</title>
<g id="a_Node000008"><a xlink:href="classdsf_1_1sim_1_1Clock.html" target="_top" xlink:title="Digital simulation clock with integer time tracking.">
<polygon fill="white" stroke="#666666" points="229,-145 141,-145 141,-126 229,-126 229,-145"/>
<text text-anchor="middle" x="185" y="-133" font-family="Helvetica,sans-Serif" font-size="10.00">dsf::sim::Clock</text>
</a>
</g>
</g>
<!-- Node8&#45;&gt;Node5 -->
<g id="edge10_Node000005_Node000008" class="edge">
<title>Node8&#45;&gt;Node5</title>
<g id="a_edge10_Node000005_Node000008"><a xlink:title=" ">
<path fill="none" stroke="#9a32cd" stroke-dasharray="5,2" d="M239.47,-135.5C265.09,-135.5 295.36,-135.5 319.46,-135.5"/>
<polygon fill="#9a32cd" stroke="#9a32cd" points="239.18,-132 229.18,-135.5 239.18,-139 239.18,-132"/>
</a>
</g>
<text text-anchor="middle" x="262.5" y="-138.5" font-family="Helvetica,sans-Serif" font-size="10.00" fill="grey"> clock</text>
</g>
</g>
</svg>
