<?xml version="1.0" encoding="UTF-8" standalone="no"?>
<!DOCTYPE svg PUBLIC "-//W3C//DTD SVG 1.1//EN"
 "http://www.w3.org/Graphics/SVG/1.1/DTD/svg11.dtd">
<!-- Generated by graphviz version 2.43.0 (0)
 -->
<!-- Title: DSF/sim/hdf5output.h Pages: 1 -->
<svg width="884pt" height="247pt"
 viewBox="0.00 0.00 883.71 247.00" xmlns="http://www.w3.org/2000/svg" xmlns:xlink="http://www.w3.org/1999/xlink">
<g id="graph0" class="graph" transform="scale(1 1) rotate(0) translate(4 243)">
<title>DSF/sim/hdf5output.h</title>
<!-- Node1 -->
<g id="Node000001" class="node">
<title>Node1</title>
<g id="a_Node000001"><a xlink:title="HDF5 output handler — self&#45;describing telemetry files.">
<polygon fill="#999999" stroke="#666666" points="435.71,-239 313.71,-239 313.71,-220 435.71,-220 435.71,-239"/>
<text text-anchor="middle" x="374.71" y="-227" font-family="Helvetica,sans-Serif" font-size="10.00">DSF/sim/hdf5output.h</text>
</a>
</g>
</g>
<!-- Node2 -->
<g id="Node000002" class="node">
<title>Node2</title>
<g id="a_Node000002"><a xlink:title=" ">
<polygon fill="#e0e0e0" stroke="#999999" points="702.71,-19 642.71,-19 642.71,0 702.71,0 702.71,-19"/>
<text text-anchor="middle" x="672.71" y="-7" font-family="Helvetica,sans-Serif" font-size="10.00">iostream</text>
</a>
</g>
</g>
<!-- Node1&#45;&gt;Node2 -->
<g id="edge1_Node000001_Node000002" class="edge">
<title>Node1&#45;&gt;Node2</title>
<g id="a_edge1_Node000001_Node000002"><a xlink:title=" ">
<path fill="none" stroke="#63b8ff" d="M313.64,-227.85C198.74,-225.46 -34.68,-214.55 4.71,-165 84.23,-64.99 500.17,-24.06 632.35,-13.46"/>
<polygon fill="#63b8ff" stroke="#63b8ff" points="632.76,-16.94 642.45,-12.66 632.21,-9.96 632.76,-16.94"/>
</a>
</g>
</g>
<!-- Node3 -->
<g id="Node000003" class="node">
<title>Node3</title>
<g id="a_Node000003"><a xlink:title=" ">
<polygon fill="#e0e0e0" stroke="#999999" points="61.21,-184 14.21,-184 14.21,-165 61.21,-165 61.21,-184"/>
<text text-anchor="middle" x="37.71" y="-172" font-family="Helvetica,sans-Serif" font-size="10.00">vector</text>
</a>
</g>
</g>
<!-- Node1&#45;&gt;Node3 -->
<g id="edge2_Node000001_Node000003" class="edge">
<title>Node1&#45;&gt;Node3</title>
<g id="a_edge2_Node000001_Node000003"><a xlink:title=" ">
<path fill="none" stroke="#63b8ff" d="M313.53,-221.49C254.07,-214.24 161.07,-201.74 71.24,-183.9"/>
<polygon fill="#63b8ff" stroke="#63b8ff" points="71.93,-180.47 61.43,-181.93 70.55,-187.34 71.93,-180.47"/>
</a>
</g>
</g>
<!-- Node4 -->
<g id="Node000004" class="node">
<title>Node4</title>
<g id="a_Node000004"><a xlink:title=" ">
<polygon fill="#e0e0e0" stroke="#999999" points="123.71,-184 79.71,-184 79.71,-165 123.71,-165 123.71,-184"/>
<text text-anchor="middle" x="101.71" y="-172" font-family="Helvetica,sans-Serif" font-size="10.00">string</text>
</a>
</g>
</g>
<!-- Node1&#45;&gt;Node4 -->
<g id="edge3_Node000001_Node000004" class="edge">
<title>Node1&#45;&gt;Node4</title>
<g id="a_edge3_Node000001_Node000004"><a xlink:title=" ">
<path fill="none" stroke="#63b8ff" d="M321.09,-220C274.09,-212.24 203.72,-199.88 133.86,-184.11"/>
<polygon fill="#63b8ff" stroke="#63b8ff" points="134.53,-180.67 124,-181.86 132.98,-187.5 134.53,-180.67"/>
</a>
</g>
</g>
<!-- Node5 -->
<g id="Node000005" class="node">
<title>Node5</title>
<g id="a_Node000005"><a xlink:title=" ">
<polygon fill="#e0e0e0" stroke="#999999" points="173.71,-184 141.71,-184 141.71,-165 173.71,-165 173.71,-184"/>
<text text-anchor="middle" x="157.71" y="-172" font-family="Helvetica,sans-Serif" font-size="10.00">set</text>
</a>
</g>
</g>
<!-- Node1&#45;&gt;Node5 -->
<g id="edge4_Node000001_Node000005" class="edge">
<title>Node1&#45;&gt;Node5</title>
<g id="a_edge4_Node000001_Node000005"><a xlink:title=" ">
<path fill="none" stroke="#63b8ff" d="M332.45,-219.98C295.48,-212.24 240.18,-199.98 183.6,-184.03"/>
<polygon fill="#63b8ff" stroke="#63b8ff" points="184.35,-180.6 173.78,-181.23 182.43,-187.34 184.35,-180.6"/>
</a>
</g>
</g>
<!-- Node6 -->
<g id="Node000006" class="node">
<title>Node6</title>
<g id="a_Node000006"><a xlink:title=" ">
<polygon fill="#e0e0e0" stroke="#999999" points="229.71,-184 191.71,-184 191.71,-165 229.71,-165 229.71,-184"/>
<text text-anchor="middle" x="210.71" y="-172" font-family="Helvetica,sans-Serif" font-size="10.00">map</text>
</a>
</g>
</g>
<!-- Node1&#45;&gt;Node6 -->
<g id="edge5_Node000001_Node000006" class="edge">
<title>Node1&#45;&gt;Node6</title>
<g id="a_edge5_Node000001_Node000006"><a xlink:title=" ">
<path fill="none" stroke="#63b8ff" d="M348.36,-219.98C318.59,-210.36 270.28,-194.75 239.53,-184.81"/>
<polygon fill="#63b8ff" stroke="#63b8ff" points="240.41,-181.42 229.82,-181.68 238.26,-188.08 240.41,-181.42"/>
</a>
</g>
</g>
<!-- Node7 -->
<g id="Node000007" class="node">
<title>Node7</title>
<g id="a_Node000007"><a xlink:title=" ">
<polygon fill="#e0e0e0" stroke="#999999" points="291.71,-184 247.71,-184 247.71,-165 291.71,-165 291.71,-184"/>
<text text-anchor="middle" x="269.71" y="-172" font-family="Helvetica,sans-Serif" font-size="10.00">ctime</text>
</a>
</g>
</g>
<!-- Node1&#45;&gt;Node7 -->
<g id="edge6_Node000001_Node000007" class="edge">
<title>Node1&#45;&gt;Node7</title>
<g id="a_edge6_Node000001_Node000007"><a xlink:title=" ">
<path fill="none" stroke="#63b8ff" d="M357.84,-219.98C341.1,-211.54 315.21,-198.47 295.82,-188.68"/>
<polygon fill="#63b8ff" stroke="#63b8ff" points="297.39,-185.55 286.89,-184.17 294.24,-191.8 297.39,-185.55"/>
</a>
</g>
</g>
<!-- Node8 -->
<g id="Node000008" class="node">
<title>Node8</title>
<g id="a_Node000008"><a xlink:title=" ">
<polygon fill="#e0e0e0" stroke="#999999" points="365.71,-184 309.71,-184 309.71,-165 365.71,-165 365.71,-184"/>
<text text-anchor="middle" x="337.71" y="-172" font-family="Helvetica,sans-Serif" font-size="10.00">iomanip</text>
</a>
</g>
</g>
<!-- Node1&#45;&gt;Node8 -->
<g id="edge7_Node000001_Node000008" class="edge">
<title>Node1&#45;&gt;Node8</title>
<g id="a_edge7_Node000001_Node000008"><a xlink:title=" ">
<path fill="none" stroke="#63b8ff" d="M368.6,-219.75C363.43,-212.34 355.87,-201.5 349.52,-192.41"/>
<polygon fill="#63b8ff" stroke="#63b8ff" points="352.3,-190.29 343.71,-184.09 346.56,-194.29 352.3,-190.29"/>
</a>
</g>
</g>
<!-- Node9 -->
<g id="Node000009" class="node">
<title>Node9</title>
<g id="a_Node000009"><a xlink:title=" ">
<polygon fill="#e0e0e0" stroke="#999999" points="439.71,-184 383.71,-184 383.71,-165 439.71,-165 439.71,-184"/>
<text text-anchor="middle" x="411.71" y="-172" font-family="Helvetica,sans-Serif" font-size="10.00">sstream</text>
</a>
</g>
</g>
<!-- Node1&#45;&gt;Node9 -->
<g id="edge8_Node000001_Node000009" class="edge">
<title>Node1&#45;&gt;Node9</title>
<g id="a_edge8_Node000001_Node000009"><a xlink:title=" ">
<path fill="none" stroke="#63b8ff" d="M380.82,-219.75C385.99,-212.34 393.56,-201.5 399.91,-192.41"/>
<polygon fill="#63b8ff" stroke="#63b8ff" points="402.86,-194.29 405.72,-184.09 397.12,-190.29 402.86,-194.29"/>
</a>
</g>
</g>
<!-- Node10 -->
<g id="Node000010" class="node">
<title>Node10</title>
<g id="a_Node000010"><a xlink:title=" ">
<polygon fill="#e0e0e0" stroke="#999999" points="515.71,-184 457.71,-184 457.71,-165 515.71,-165 515.71,-184"/>
<text text-anchor="middle" x="486.71" y="-172" font-family="Helvetica,sans-Serif" font-size="10.00">H5Cpp.h</text>
</a>
</g>
</g>
<!-- Node1&#45;&gt;Node10 -->
<g id="edge9_Node000001_Node000010" class="edge">
<title>Node1&#45;&gt;Node10</title>
<g id="a_edge9_Node000001_Node000010"><a xlink:title=" ">
<path fill="none" stroke="#63b8ff" d="M392.71,-219.98C410.64,-211.5 438.43,-198.35 459.15,-188.54"/>
<polygon fill="#63b8ff" stroke="#63b8ff" points="460.85,-191.61 468.39,-184.17 457.85,-185.28 460.85,-191.61"/>
</a>
</g>
</g>
<!-- Node11 -->
<g id="Node000011" class="node">
<title>Node11</title>
<g id="a_Node000011"><a xlink:href="log__level_8h.html" target="_top" xlink:title="Definition of logging priority levels.">
<polygon fill="white" stroke="#666666" points="603.71,-184 533.71,-184 533.71,-165 603.71,-165 603.71,-184"/>
<text text-anchor="middle" x="568.71" y="-172" font-family="Helvetica,sans-Serif" font-size="10.00">log_level.h</text>
</a>
</g>
</g>
<!-- Node1&#45;&gt;Node11 -->
<g id="edge10_Node000001_Node000011" class="edge">
<title>Node1&#45;&gt;Node11</title>
<g id="a_edge10_Node000001_Node000011"><a xlink:title=" ">
<path fill="none" stroke="#63b8ff" d="M405.88,-219.98C438.87,-210.97 491.11,-196.7 527.49,-186.76"/>
<polygon fill="#63b8ff" stroke="#63b8ff" points="528.57,-190.09 537.3,-184.08 526.73,-183.34 528.57,-190.09"/>
</a>
</g>
</g>
<!-- Node12 -->
<g id="Node000012" class="node">
<title>Node12</title>
<g id="a_Node000012"><a xlink:href="vec3_8h.html" target="_top" xlink:title="3D vector class for simulation mathematics.">
<polygon fill="white" stroke="#666666" points="685.21,-74 580.21,-74 580.21,-55 685.21,-55 685.21,-74"/>
<text text-anchor="middle" x="632.71" y="-62" font-family="Helvetica,sans-Serif" font-size="10.00">../util/math/vec3.h</text>
</a>
</g>
</g>
<!-- Node1&#45;&gt;Node12 -->
<g id="edge11_Node000001_Node000012" class="edge">
<title>Node1&#45;&gt;Node12</title>
<g id="a_edge11_Node000001_Node000012"><a xlink:title=" ">
<path fill="none" stroke="#63b8ff" d="M435.76,-224.89C497.95,-219.9 588.59,-208.55 612.71,-184 638.82,-157.42 638.24,-110.26 635.5,-84.17"/>
<polygon fill="#63b8ff" stroke="#63b8ff" points="638.95,-83.58 634.22,-74.1 632,-84.46 638.95,-83.58"/>
</a>
</g>
</g>
<!-- Node13 -->
<g id="Node000013" class="node">
<title>Node13</title>
<g id="a_Node000013"><a xlink:href="mat3_8h.html" target="_top" xlink:title="3x3 matrix class for rotation and transformation operations.">
<polygon fill="white" stroke="#666666" points="767.21,-129 660.21,-129 660.21,-110 767.21,-110 767.21,-129"/>
<text text-anchor="middle" x="713.71" y="-117" font-family="Helvetica,sans-Serif" font-size="10.00">../util/math/mat3.h</text>
</a>
</g>
</g>
<!-- Node1&#45;&gt;Node13 -->
<g id="edge13_Node000001_Node000013" class="edge">
<title>Node1&#45;&gt;Node13</title>
<g id="a_edge13_Node000001_Node000013"><a xlink:title=" ">
<path fill="none" stroke="#63b8ff" d="M435.91,-228.46C492.93,-226.16 578.96,-216.82 645.71,-184 668.25,-172.92 688.49,-151.87 700.92,-137.06"/>
<polygon fill="#63b8ff" stroke="#63b8ff" points="703.72,-139.15 707.29,-129.17 698.28,-134.75 703.72,-139.15"/>
</a>
</g>
</g>
<!-- Node14 -->
<g id="Node000014" class="node">
<title>Node14</title>
<g id="a_Node000014"><a xlink:href="quat_8h.html" target="_top" xlink:title="Quaternion class for attitude representation.">
<polygon fill="white" stroke="#666666" points="801.71,-184 697.71,-184 697.71,-165 801.71,-165 801.71,-184"/>
<text text-anchor="middle" x="749.71" y="-172" font-family="Helvetica,sans-Serif" font-size="10.00">../util/math/quat.h</text>
</a>
</g>
</g>
<!-- Node1&#45;&gt;Node14 -->
<g id="edge16_Node000001_Node000014" class="edge">
<title>Node1&#45;&gt;Node14</title>
<g id="a_edge16_Node000001_Node000014"><a xlink:title=" ">
<path fill="none" stroke="#63b8ff" d="M434.96,-219.98C504.23,-210.2 617.36,-194.21 687.45,-184.3"/>
<polygon fill="#63b8ff" stroke="#63b8ff" points="688.06,-187.75 697.47,-182.88 687.08,-180.82 688.06,-187.75"/>
</a>
</g>
</g>
<!-- Node16 -->
<g id="Node000016" class="node">
<title>Node16</title>
<g id="a_Node000016"><a xlink:title=" ">
<polygon fill="#e0e0e0" stroke="#999999" points="875.71,-184 819.71,-184 819.71,-165 875.71,-165 875.71,-184"/>
<text text-anchor="middle" x="847.71" y="-172" font-family="Helvetica,sans-Serif" font-size="10.00">unistd.h</text>
</a>
</g>
</g>
<!-- Node1&#45;&gt;Node16 -->
<g id="edge20_Node000001_Node000016" class="edge">
<title>Node1&#45;&gt;Node16</title>
<g id="a_edge20_Node000001_Node000016"><a xlink:title=" ">
<path fill="none" stroke="#63b8ff" d="M436.05,-224.65C518.74,-218.93 670.69,-206.52 809.53,-184"/>
<polygon fill="#63b8ff" stroke="#63b8ff" points="810.2,-187.44 819.5,-182.36 809.07,-180.53 810.2,-187.44"/>
</a>
</g>
</g>
<!-- Node12&#45;&gt;Node2 -->
<g id="edge12_Node000012_Node000002" class="edge">
<title>Node12&#45;&gt;Node2</title>
<g id="a_edge12_Node000012_Node000002"><a xlink:title=" ">
<path fill="none" stroke="#63b8ff" d="M639.32,-54.75C644.97,-47.26 653.26,-36.28 660.16,-27.13"/>
<polygon fill="#63b8ff" stroke="#63b8ff" points="663,-29.18 666.23,-19.09 657.41,-24.96 663,-29.18"/>
</a>
</g>
</g>
<!-- Node13&#45;&gt;Node2 -->
<g id="edge14_Node000013_Node000002" class="edge">
<title>Node13&#45;&gt;Node2</title>
<g id="a_edge14_Node000013_Node000002"><a xlink:title=" ">
<path fill="none" stroke="#63b8ff" d="M711.36,-109.74C707.95,-97.37 701.21,-74.16 693.71,-55 690.21,-46.05 685.73,-36.37 681.81,-28.34"/>
<polygon fill="#63b8ff" stroke="#63b8ff" points="684.85,-26.6 677.25,-19.21 678.59,-29.72 684.85,-26.6"/>
</a>
</g>
</g>
<!-- Node13&#45;&gt;Node12 -->
<g id="edge15_Node000013_Node000012" class="edge">
<title>Node13&#45;&gt;Node12</title>
<g id="a_edge15_Node000013_Node000012"><a xlink:title=" ">
<path fill="none" stroke="#63b8ff" d="M700.7,-109.98C688.25,-101.84 669.26,-89.41 654.5,-79.76"/>
<polygon fill="#63b8ff" stroke="#63b8ff" points="656.25,-76.72 645.96,-74.17 652.41,-82.57 656.25,-76.72"/>
</a>
</g>
</g>
<!-- Node14&#45;&gt;Node2 -->
<g id="edge17_Node000014_Node000002" class="edge">
<title>Node14&#45;&gt;Node2</title>
<g id="a_edge17_Node000014_Node000002"><a xlink:title=" ">
<path fill="none" stroke="#63b8ff" d="M757.79,-164.84C768.19,-152.59 784,-129.52 775.71,-110 759.62,-72.09 721.23,-41.58 696.13,-24.76"/>
<polygon fill="#63b8ff" stroke="#63b8ff" points="697.85,-21.71 687.55,-19.2 694.04,-27.58 697.85,-21.71"/>
</a>
</g>
</g>
<!-- Node14&#45;&gt;Node13 -->
<g id="edge19_Node000014_Node000013" class="edge">
<title>Node14&#45;&gt;Node13</title>
<g id="a_edge19_Node000014_Node000013"><a xlink:title=" ">
<path fill="none" stroke="#63b8ff" d="M743.77,-164.75C738.73,-157.34 731.37,-146.5 725.2,-137.41"/>
<polygon fill="#63b8ff" stroke="#63b8ff" points="728.06,-135.39 719.55,-129.09 722.27,-139.33 728.06,-135.39"/>
</a>
</g>
</g>
<!-- Node15 -->
<g id="Node000015" class="node">
<title>Node15</title>
<g id="a_Node000015"><a xlink:title=" ">
<polygon fill="#e0e0e0" stroke="#999999" points="871.21,-129 824.21,-129 824.21,-110 871.21,-110 871.21,-129"/>
<text text-anchor="middle" x="847.71" y="-117" font-family="Helvetica,sans-Serif" font-size="10.00">cmath</text>
</a>
</g>
</g>
<!-- Node14&#45;&gt;Node15 -->
<g id="edge18_Node000014_Node000015" class="edge">
<title>Node14&#45;&gt;Node15</title>
<g id="a_edge18_Node000014_Node000015"><a xlink:title=" ">
<path fill="none" stroke="#63b8ff" d="M765.46,-164.98C780.94,-156.61 804.8,-143.7 822.85,-133.95"/>
<polygon fill="#63b8ff" stroke="#63b8ff" points="824.55,-137.01 831.68,-129.17 821.22,-130.85 824.55,-137.01"/>
</a>
</g>
</g>
</g>
</svg>
