<?xml version="1.0" encoding="UTF-8" standalone="no"?>
<!DOCTYPE svg PUBLIC "-//W3C//DTD SVG 1.1//EN"
 "http://www.w3.org/Graphics/SVG/1.1/DTD/svg11.dtd">
<!-- Generated by graphviz version 2.43.0 (0)
 -->
<!-- Title: DSF/util/math/quat.h Pages: 1 -->
<svg width="912pt" height="368pt"
 viewBox="0.00 0.00 912.00 368.00" xmlns="http://www.w3.org/2000/svg" xmlns:xlink="http://www.w3.org/1999/xlink">
<g id="graph0" class="graph" transform="scale(1 1) rotate(0) translate(4 364)">
<title>DSF/util/math/quat.h</title>
<!-- Node1 -->
<g id="Node000001" class="node">
<title>Node1</title>
<g id="a_Node000001"><a xlink:title="Quaternion class for attitude representation.">
<polygon fill="#999999" stroke="#666666" points="516.5,-360 399.5,-360 399.5,-341 516.5,-341 516.5,-360"/>
<text text-anchor="middle" x="458" y="-348" font-family="Helvetica,sans-Serif" font-size="10.00">DSF/util/math/quat.h</text>
</a>
</g>
</g>
<!-- Node2 -->
<g id="Node000002" class="node">
<title>Node2</title>
<g id="a_Node000002"><a xlink:href="TIntDict_8h.html" target="_top" xlink:title="Integrand dictionary for numerical integration.">
<polygon fill="white" stroke="#666666" points="429.5,-305 322.5,-305 322.5,-286 429.5,-286 429.5,-305"/>
<text text-anchor="middle" x="376" y="-293" font-family="Helvetica,sans-Serif" font-size="10.00">DSF/sim/TIntDict.h</text>
</a>
</g>
</g>
<!-- Node1&#45;&gt;Node2 -->
<g id="edge1_Node000001_Node000002" class="edge">
<title>Node1&#45;&gt;Node2</title>
<g id="a_edge1_Node000001_Node000002"><a xlink:title=" ">
<path fill="none" stroke="#63b8ff" d="M436.22,-335.42C421.34,-325.81 402.09,-313.37 389.41,-305.17"/>
<polygon fill="#63b8ff" stroke="#63b8ff" points="434.53,-338.5 444.83,-340.98 438.33,-332.62 434.53,-338.5"/>
</a>
</g>
</g>
<!-- Node11 -->
<g id="Node000011" class="node">
<title>Node11</title>
<g id="a_Node000011"><a xlink:href="output_8h.html" target="_top" xlink:title="CSV output handler for simulation telemetry.">
<polygon fill="white" stroke="#666666" points="106.5,-134.5 5.5,-134.5 5.5,-115.5 106.5,-115.5 106.5,-134.5"/>
<text text-anchor="middle" x="56" y="-122.5" font-family="Helvetica,sans-Serif" font-size="10.00">DSF/sim/output.h</text>
</a>
</g>
</g>
<!-- Node1&#45;&gt;Node11 -->
<g id="edge23_Node000001_Node000011" class="edge">
<title>Node1&#45;&gt;Node11</title>
<g id="a_edge23_Node000001_Node000011"><a xlink:title=" ">
<path fill="none" stroke="#63b8ff" d="M389.12,-343.19C282.75,-331.85 86.42,-304 45,-250 18.03,-214.85 41.31,-156.48 51.65,-134.62"/>
<polygon fill="#63b8ff" stroke="#63b8ff" points="388.81,-346.68 399.12,-344.24 389.54,-339.72 388.81,-346.68"/>
</a>
</g>
</g>
<!-- Node16 -->
<g id="Node000016" class="node">
<title>Node16</title>
<g id="a_Node000016"><a xlink:href="hdf5output_8h.html" target="_top" xlink:title="HDF5 output handler — self&#45;describing telemetry files.">
<polygon fill="white" stroke="#666666" points="176,-250 54,-250 54,-231 176,-231 176,-250"/>
<text text-anchor="middle" x="115" y="-238" font-family="Helvetica,sans-Serif" font-size="10.00">DSF/sim/hdf5output.h</text>
</a>
</g>
</g>
<!-- Node1&#45;&gt;Node16 -->
<g id="edge21_Node000001_Node000016" class="edge">
<title>Node1&#45;&gt;Node16</title>
<g id="a_edge21_Node000001_Node000016"><a xlink:title=" ">
<path fill="none" stroke="#63b8ff" d="M420.08,-338.01C390.8,-329.1 349.3,-316.39 313,-305 251.35,-285.65 179.11,-262.32 141.23,-250.03"/>
<polygon fill="#63b8ff" stroke="#63b8ff" points="419.31,-341.43 429.9,-340.99 421.35,-334.73 419.31,-341.43"/>
</a>
</g>
</g>
<!-- Node17 -->
<g id="Node000017" class="node">
<title>Node17</title>
<g id="a_Node000017"><a xlink:href="mat4_8cpp.html" target="_top" xlink:title=" ">
<polygon fill="white" stroke="#666666" points="767,-250 635,-250 635,-231 767,-231 767,-250"/>
<text text-anchor="middle" x="701" y="-238" font-family="Helvetica,sans-Serif" font-size="10.00">DSF/util/math/mat4.cpp</text>
</a>
</g>
</g>
<!-- Node1&#45;&gt;Node17 -->
<g id="edge24_Node000001_Node000017" class="edge">
<title>Node1&#45;&gt;Node17</title>
<g id="a_edge24_Node000001_Node000017"><a xlink:title=" ">
<path fill="none" stroke="#63b8ff" d="M458.98,-330.41C460.75,-316.13 465.51,-297.21 478,-286 490.21,-275.04 580.61,-259.55 642.49,-250.03"/>
<polygon fill="#63b8ff" stroke="#63b8ff" points="455.47,-330.36 458.1,-340.63 462.44,-330.96 455.47,-330.36"/>
</a>
</g>
</g>
<!-- Node18 -->
<g id="Node000018" class="node">
<title>Node18</title>
<g id="a_Node000018"><a xlink:href="mat4_8h.html" target="_top" xlink:title="4x4 matrix class for quaternion kinematics.">
<polygon fill="white" stroke="#666666" points="607.5,-305 486.5,-305 486.5,-286 607.5,-286 607.5,-305"/>
<text text-anchor="middle" x="547" y="-293" font-family="Helvetica,sans-Serif" font-size="10.00">DSF/util/math/mat4.h</text>
</a>
</g>
</g>
<!-- Node1&#45;&gt;Node18 -->
<g id="edge25_Node000001_Node000018" class="edge">
<title>Node1&#45;&gt;Node18</title>
<g id="a_edge25_Node000001_Node000018"><a xlink:title=" ">
<path fill="none" stroke="#63b8ff" d="M481.18,-335.7C497.39,-326.04 518.55,-313.44 532.44,-305.17"/>
<polygon fill="#63b8ff" stroke="#63b8ff" points="479.1,-332.86 472.3,-340.98 482.68,-338.88 479.1,-332.86"/>
</a>
</g>
</g>
<!-- Node19 -->
<g id="Node000019" class="node">
<title>Node19</title>
<g id="a_Node000019"><a xlink:href="number_8h.html" target="_top" xlink:title="NaN and infinity detection utilities (pre&#45;C++11 fallback).">
<polygon fill="white" stroke="#666666" points="758,-305 626,-305 626,-286 758,-286 758,-305"/>
<text text-anchor="middle" x="692" y="-293" font-family="Helvetica,sans-Serif" font-size="10.00">DSF/util/math/number.h</text>
</a>
</g>
</g>
<!-- Node1&#45;&gt;Node19 -->
<g id="edge27_Node000001_Node000019" class="edge">
<title>Node1&#45;&gt;Node19</title>
<g id="a_edge27_Node000001_Node000019"><a xlink:title=" ">
<path fill="none" stroke="#63b8ff" d="M505.45,-338.75C549.3,-328.82 613.6,-314.26 654.11,-305.08"/>
<polygon fill="#63b8ff" stroke="#63b8ff" points="504.58,-335.36 495.6,-340.98 506.12,-342.19 504.58,-335.36"/>
</a>
</g>
</g>
<!-- Node20 -->
<g id="Node000020" class="node">
<title>Node20</title>
<g id="a_Node000020"><a xlink:href="quat_8cpp.html" target="_top" xlink:title=" ">
<polygon fill="white" stroke="#666666" points="904,-305 776,-305 776,-286 904,-286 904,-305"/>
<text text-anchor="middle" x="840" y="-293" font-family="Helvetica,sans-Serif" font-size="10.00">DSF/util/math/quat.cpp</text>
</a>
</g>
</g>
<!-- Node1&#45;&gt;Node20 -->
<g id="edge28_Node000001_Node000020" class="edge">
<title>Node1&#45;&gt;Node20</title>
<g id="a_edge28_Node000001_Node000020"><a xlink:title=" ">
<path fill="none" stroke="#63b8ff" d="M527.13,-339.91C598.82,-329.96 709.84,-314.56 778.55,-305.03"/>
<polygon fill="#63b8ff" stroke="#63b8ff" points="526.27,-336.49 516.85,-341.33 527.24,-343.43 526.27,-336.49"/>
</a>
</g>
</g>
<!-- Node3 -->
<g id="Node000003" class="node">
<title>Node3</title>
<g id="a_Node000003"><a xlink:href="TClassDict_8h.html" target="_top" xlink:title="Template class factory and dictionary system.">
<polygon fill="white" stroke="#666666" points="617,-250 497,-250 497,-231 617,-231 617,-250"/>
<text text-anchor="middle" x="557" y="-238" font-family="Helvetica,sans-Serif" font-size="10.00">DSF/sim/TClassDict.h</text>
</a>
</g>
</g>
<!-- Node2&#45;&gt;Node3 -->
<g id="edge2_Node000002_Node000003" class="edge">
<title>Node2&#45;&gt;Node3</title>
<g id="a_edge2_Node000002_Node000003"><a xlink:title=" ">
<path fill="none" stroke="#63b8ff" d="M415.08,-283.06C448.91,-273.15 497.08,-259.04 527.69,-250.08"/>
<polygon fill="#63b8ff" stroke="#63b8ff" points="413.69,-279.82 405.08,-285.98 415.66,-286.53 413.69,-279.82"/>
</a>
</g>
</g>
<!-- Node8 -->
<g id="Node000008" class="node">
<title>Node8</title>
<g id="a_Node000008"><a xlink:href="integrator__rk45_8cpp.html" target="_top" xlink:title=" ">
<polygon fill="white" stroke="#666666" points="435,-140 327,-140 327,-110 435,-110 435,-140"/>
<text text-anchor="start" x="335" y="-128" font-family="Helvetica,sans-Serif" font-size="10.00">DSF/sim/integrator</text>
<text text-anchor="middle" x="381" y="-117" font-family="Helvetica,sans-Serif" font-size="10.00">_rk45.cpp</text>
</a>
</g>
</g>
<!-- Node2&#45;&gt;Node8 -->
<g id="edge19_Node000002_Node000008" class="edge">
<title>Node2&#45;&gt;Node8</title>
<g id="a_edge19_Node000002_Node000008"><a xlink:title=" ">
<path fill="none" stroke="#63b8ff" d="M364.09,-277.22C359.33,-269.3 354.41,-259.56 352,-250 341.99,-210.34 361.59,-163.25 373.23,-140.17"/>
<polygon fill="#63b8ff" stroke="#63b8ff" points="361.28,-279.32 369.63,-285.84 367.17,-275.54 361.28,-279.32"/>
</a>
</g>
</g>
<!-- Node9 -->
<g id="Node000009" class="node">
<title>Node9</title>
<g id="a_Node000009"><a xlink:href="integrator__verlet_8cpp.html" target="_top" xlink:title=" ">
<polygon fill="white" stroke="#666666" points="233,-140 125,-140 125,-110 233,-110 233,-140"/>
<text text-anchor="start" x="133" y="-128" font-family="Helvetica,sans-Serif" font-size="10.00">DSF/sim/integrator</text>
<text text-anchor="middle" x="179" y="-117" font-family="Helvetica,sans-Serif" font-size="10.00">_verlet.cpp</text>
</a>
</g>
</g>
<!-- Node2&#45;&gt;Node9 -->
<g id="edge20_Node000002_Node000009" class="edge">
<title>Node2&#45;&gt;Node9</title>
<g id="a_edge20_Node000002_Node000009"><a xlink:title=" ">
<path fill="none" stroke="#63b8ff" d="M348.75,-281.37C316.07,-264.66 260.96,-233.3 223,-195 206.7,-178.55 193.32,-155.08 185.75,-140.19"/>
<polygon fill="#63b8ff" stroke="#63b8ff" points="347.23,-284.52 357.74,-285.88 350.37,-278.27 347.23,-284.52"/>
</a>
</g>
</g>
<!-- Node15 -->
<g id="Node000015" class="node">
<title>Node15</title>
<g id="a_Node000015"><a xlink:href="TSkedDict_8h.html" target="_top" xlink:title="Placeholder scheduler dictionary (future use).">
<polygon fill="white" stroke="#666666" points="479,-250 361,-250 361,-231 479,-231 479,-250"/>
<text text-anchor="middle" x="420" y="-238" font-family="Helvetica,sans-Serif" font-size="10.00">DSF/sim/TSkedDict.h</text>
</a>
</g>
</g>
<!-- Node2&#45;&gt;Node15 -->
<g id="edge18_Node000002_Node000015" class="edge">
<title>Node2&#45;&gt;Node15</title>
<g id="a_edge18_Node000002_Node000015"><a xlink:title=" ">
<path fill="none" stroke="#63b8ff" d="M389.73,-277.96C397.4,-268.72 406.63,-257.6 412.87,-250.09"/>
<polygon fill="#63b8ff" stroke="#63b8ff" points="386.96,-275.82 383.27,-285.75 392.35,-280.29 386.96,-275.82"/>
</a>
</g>
</g>
<!-- Node4 -->
<g id="Node000004" class="node">
<title>Node4</title>
<g id="a_Node000004"><a xlink:href="SimMetadata_8h.html" target="_top" xlink:title="Macros for decorating DSF blocks with metadata.">
<polygon fill="white" stroke="#666666" points="579,-195 445,-195 445,-176 579,-176 579,-195"/>
<text text-anchor="middle" x="512" y="-183" font-family="Helvetica,sans-Serif" font-size="10.00">DSF/sim/SimMetadata.h</text>
</a>
</g>
</g>
<!-- Node3&#45;&gt;Node4 -->
<g id="edge3_Node000003_Node000004" class="edge">
<title>Node3&#45;&gt;Node4</title>
<g id="a_edge3_Node000003_Node000004"><a xlink:title=" ">
<path fill="none" stroke="#63b8ff" d="M542.95,-222.96C535.11,-213.72 525.67,-202.6 519.29,-195.09"/>
<polygon fill="#63b8ff" stroke="#63b8ff" points="540.43,-225.39 549.57,-230.75 545.76,-220.86 540.43,-225.39"/>
</a>
</g>
</g>
<!-- Node5 -->
<g id="Node000005" class="node">
<title>Node5</title>
<g id="a_Node000005"><a xlink:href="TRefDict_8h.html" target="_top" xlink:title="Template reference functions for retrieving block instances.">
<polygon fill="white" stroke="#666666" points="708.5,-195 597.5,-195 597.5,-176 708.5,-176 708.5,-195"/>
<text text-anchor="middle" x="653" y="-183" font-family="Helvetica,sans-Serif" font-size="10.00">DSF/sim/TRefDict.h</text>
</a>
</g>
</g>
<!-- Node3&#45;&gt;Node5 -->
<g id="edge4_Node000003_Node000005" class="edge">
<title>Node3&#45;&gt;Node5</title>
<g id="a_edge4_Node000003_Node000005"><a xlink:title=" ">
<path fill="none" stroke="#63b8ff" d="M581.52,-225.97C599.06,-216.28 622.17,-203.52 637.3,-195.17"/>
<polygon fill="#63b8ff" stroke="#63b8ff" points="579.49,-223.09 572.42,-230.98 582.87,-229.22 579.49,-223.09"/>
</a>
</g>
</g>
<!-- Node6 -->
<g id="Node000006" class="node">
<title>Node6</title>
<g id="a_Node000006"><a xlink:href="block_8h.html" target="_top" xlink:title="Base class for all simulation components in the DSF framework.">
<polygon fill="white" stroke="#666666" points="327.5,-195 232.5,-195 232.5,-176 327.5,-176 327.5,-195"/>
<text text-anchor="middle" x="280" y="-183" font-family="Helvetica,sans-Serif" font-size="10.00">DSF/sim/block.h</text>
</a>
</g>
</g>
<!-- Node3&#45;&gt;Node6 -->
<g id="edge5_Node000003_Node000006" class="edge">
<title>Node3&#45;&gt;Node6</title>
<g id="a_edge5_Node000003_Node000006"><a xlink:title=" ">
<path fill="none" stroke="#63b8ff" d="M502.46,-229.07C450.53,-219.13 373.31,-204.35 324.85,-195.08"/>
<polygon fill="#63b8ff" stroke="#63b8ff" points="502.02,-232.54 512.5,-230.98 503.33,-225.67 502.02,-232.54"/>
</a>
</g>
</g>
<!-- Node10 -->
<g id="Node000010" class="node">
<title>Node10</title>
<g id="a_Node000010"><a xlink:href="monte__carlo_8h.html" target="_top" xlink:title="Monte Carlo dispersion engine for DSF simulations.">
<polygon fill="white" stroke="#666666" points="583,-134.5 453,-134.5 453,-115.5 583,-115.5 583,-134.5"/>
<text text-anchor="middle" x="518" y="-122.5" font-family="Helvetica,sans-Serif" font-size="10.00">DSF/sim/monte_carlo.h</text>
</a>
</g>
</g>
<!-- Node3&#45;&gt;Node10 -->
<g id="edge16_Node000003_Node000010" class="edge">
<title>Node3&#45;&gt;Node10</title>
<g id="a_edge16_Node000003_Node000010"><a xlink:title=" ">
<path fill="none" stroke="#63b8ff" d="M487.22,-229.25C467.41,-222.76 448,-212.19 436,-195 417.48,-168.45 462.01,-146.12 492.45,-134.53"/>
<polygon fill="#63b8ff" stroke="#63b8ff" points="486.36,-232.65 496.94,-232.12 488.34,-225.94 486.36,-232.65"/>
</a>
</g>
</g>
<!-- Node14 -->
<g id="Node000014" class="node">
<title>Node14</title>
<g id="a_Node000014"><a xlink:href="sim_8cpp.html" target="_top" xlink:title=" ">
<polygon fill="white" stroke="#666666" points="401,-19 303,-19 303,0 401,0 401,-19"/>
<text text-anchor="middle" x="352" y="-7" font-family="Helvetica,sans-Serif" font-size="10.00">DSF/sim/sim.cpp</text>
</a>
</g>
</g>
<!-- Node3&#45;&gt;Node14 -->
<g id="edge17_Node000003_Node000014" class="edge">
<title>Node3&#45;&gt;Node14</title>
<g id="a_edge17_Node000003_Node000014"><a xlink:title=" ">
<path fill="none" stroke="#63b8ff" d="M625.41,-229.04C663.85,-221.62 706.39,-210.25 718,-195 723.11,-188.28 722.37,-183.22 718,-176 650.04,-63.68 484.12,-27.06 401.05,-15.54"/>
<polygon fill="#63b8ff" stroke="#63b8ff" points="624.41,-225.67 615.22,-230.94 625.7,-232.55 624.41,-225.67"/>
</a>
</g>
</g>
<!-- Node7 -->
<g id="Node000007" class="node">
<title>Node7</title>
<g id="a_Node000007"><a xlink:href="integratorRK4_8cpp.html" target="_top" xlink:title=" ">
<polygon fill="white" stroke="#666666" points="284,-19 136,-19 136,0 284,0 284,-19"/>
<text text-anchor="middle" x="210" y="-7" font-family="Helvetica,sans-Serif" font-size="10.00">DSF/sim/integratorRK4.cpp</text>
</a>
</g>
</g>
<!-- Node6&#45;&gt;Node7 -->
<g id="edge6_Node000006_Node000007" class="edge">
<title>Node6&#45;&gt;Node7</title>
<g id="a_edge6_Node000006_Node000007"><a xlink:title=" ">
<path fill="none" stroke="#63b8ff" d="M270.93,-166.63C257.64,-140.27 233.71,-92.14 227,-74 219.95,-54.95 214.49,-31.69 211.81,-19.29"/>
<polygon fill="#63b8ff" stroke="#63b8ff" points="267.96,-168.51 275.59,-175.85 274.2,-165.35 267.96,-168.51"/>
</a>
</g>
</g>
<!-- Node6&#45;&gt;Node8 -->
<g id="edge7_Node000006_Node000008" class="edge">
<title>Node6&#45;&gt;Node8</title>
<g id="a_edge7_Node000006_Node000008"><a xlink:title=" ">
<path fill="none" stroke="#63b8ff" d="M303.63,-170.81C319.57,-161.58 340.54,-149.43 356.63,-140.11"/>
<polygon fill="#63b8ff" stroke="#63b8ff" points="301.8,-167.83 294.9,-175.87 305.31,-173.88 301.8,-167.83"/>
</a>
</g>
</g>
<!-- Node6&#45;&gt;Node9 -->
<g id="edge8_Node000006_Node000009" class="edge">
<title>Node6&#45;&gt;Node9</title>
<g id="a_edge8_Node000006_Node000009"><a xlink:title=" ">
<path fill="none" stroke="#63b8ff" d="M256.37,-170.81C240.43,-161.58 219.46,-149.43 203.37,-140.11"/>
<polygon fill="#63b8ff" stroke="#63b8ff" points="254.69,-173.88 265.1,-175.87 258.2,-167.83 254.69,-173.88"/>
</a>
</g>
</g>
<!-- Node6&#45;&gt;Node10 -->
<g id="edge9_Node000006_Node000010" class="edge">
<title>Node6&#45;&gt;Node10</title>
<g id="a_edge9_Node000006_Node000010"><a xlink:title=" ">
<path fill="none" stroke="#63b8ff" d="M324.6,-173.54C370.6,-162.23 441.38,-144.83 483.35,-134.52"/>
<polygon fill="#63b8ff" stroke="#63b8ff" points="323.48,-170.21 314.61,-175.99 325.15,-177.01 323.48,-170.21"/>
</a>
</g>
</g>
<!-- Node6&#45;&gt;Node11 -->
<g id="edge10_Node000006_Node000011" class="edge">
<title>Node6&#45;&gt;Node11</title>
<g id="a_edge10_Node000006_Node000011"><a xlink:title=" ">
<path fill="none" stroke="#63b8ff" d="M237.48,-173.4C194.17,-162.08 127.95,-144.79 88.61,-134.52"/>
<polygon fill="#63b8ff" stroke="#63b8ff" points="236.87,-176.85 247.43,-175.99 238.64,-170.08 236.87,-176.85"/>
</a>
</g>
</g>
<!-- Node6&#45;&gt;Node14 -->
<g id="edge15_Node000006_Node000014" class="edge">
<title>Node6&#45;&gt;Node14</title>
<g id="a_edge15_Node000006_Node000014"><a xlink:title=" ">
<path fill="none" stroke="#63b8ff" d="M289.21,-166.86C300.24,-145.31 318.88,-107.58 332,-74 339.49,-54.84 346.23,-31.62 349.65,-19.26"/>
<polygon fill="#63b8ff" stroke="#63b8ff" points="286.07,-165.31 284.59,-175.8 292.29,-168.52 286.07,-165.31"/>
</a>
</g>
</g>
<!-- Node12 -->
<g id="Node000012" class="node">
<title>Node12</title>
<g id="a_Node000012"><a xlink:href="output_8cpp.html" target="_top" xlink:title=" ">
<polygon fill="white" stroke="#666666" points="112,-74 0,-74 0,-55 112,-55 112,-74"/>
<text text-anchor="middle" x="56" y="-62" font-family="Helvetica,sans-Serif" font-size="10.00">DSF/sim/output.cpp</text>
</a>
</g>
</g>
<!-- Node11&#45;&gt;Node12 -->
<g id="edge11_Node000011_Node000012" class="edge">
<title>Node11&#45;&gt;Node12</title>
<g id="a_edge11_Node000011_Node000012"><a xlink:title=" ">
<path fill="none" stroke="#63b8ff" d="M56,-105.16C56,-94.74 56,-82.3 56,-74.17"/>
<polygon fill="#63b8ff" stroke="#63b8ff" points="52.5,-105.37 56,-115.37 59.5,-105.37 52.5,-105.37"/>
</a>
</g>
</g>
<!-- Node13 -->
<g id="Node000013" class="node">
<title>Node13</title>
<g id="a_Node000013"><a xlink:href="sim_8h.html" target="_top" xlink:title="Top&#45;level simulation executive.">
<polygon fill="white" stroke="#666666" points="323.5,-74 236.5,-74 236.5,-55 323.5,-55 323.5,-74"/>
<text text-anchor="middle" x="280" y="-62" font-family="Helvetica,sans-Serif" font-size="10.00">DSF/sim/sim.h</text>
</a>
</g>
</g>
<!-- Node11&#45;&gt;Node13 -->
<g id="edge12_Node000011_Node000013" class="edge">
<title>Node11&#45;&gt;Node13</title>
<g id="a_edge12_Node000011_Node000013"><a xlink:title=" ">
<path fill="none" stroke="#63b8ff" d="M98.52,-112.9C141.83,-101.58 208.05,-84.29 247.39,-74.02"/>
<polygon fill="#63b8ff" stroke="#63b8ff" points="97.36,-109.58 88.57,-115.49 99.13,-116.35 97.36,-109.58"/>
</a>
</g>
</g>
<!-- Node13&#45;&gt;Node7 -->
<g id="edge13_Node000013_Node000007" class="edge">
<title>Node13&#45;&gt;Node7</title>
<g id="a_edge13_Node000013_Node000007"><a xlink:title=" ">
<path fill="none" stroke="#63b8ff" d="M260.69,-48.88C248.09,-39.34 232.07,-27.21 221.45,-19.17"/>
<polygon fill="#63b8ff" stroke="#63b8ff" points="258.67,-51.74 268.75,-54.98 262.89,-46.16 258.67,-51.74"/>
</a>
</g>
</g>
<!-- Node13&#45;&gt;Node14 -->
<g id="edge14_Node000013_Node000014" class="edge">
<title>Node13&#45;&gt;Node14</title>
<g id="a_edge14_Node000013_Node000014"><a xlink:title=" ">
<path fill="none" stroke="#63b8ff" d="M299.87,-48.88C312.82,-39.34 329.3,-27.21 340.22,-19.17"/>
<polygon fill="#63b8ff" stroke="#63b8ff" points="297.55,-46.24 291.57,-54.98 301.7,-51.88 297.55,-46.24"/>
</a>
</g>
</g>
<!-- Node16&#45;&gt;Node11 -->
<g id="edge22_Node000016_Node000011" class="edge">
<title>Node16&#45;&gt;Node11</title>
<g id="a_edge22_Node000016_Node000011"><a xlink:title=" ">
<path fill="none" stroke="#63b8ff" d="M105.9,-221.99C93.06,-197.3 70.14,-153.21 60.49,-134.63"/>
<polygon fill="#63b8ff" stroke="#63b8ff" points="102.85,-223.71 110.57,-230.97 109.06,-220.48 102.85,-223.71"/>
</a>
</g>
</g>
<!-- Node18&#45;&gt;Node17 -->
<g id="edge26_Node000018_Node000017" class="edge">
<title>Node18&#45;&gt;Node17</title>
<g id="a_edge26_Node000018_Node000017"><a xlink:title=" ">
<path fill="none" stroke="#63b8ff" d="M581.38,-282.67C610.09,-272.79 650.36,-258.93 676.06,-250.08"/>
<polygon fill="#63b8ff" stroke="#63b8ff" points="580.06,-279.42 571.74,-285.98 582.34,-286.04 580.06,-279.42"/>
</a>
</g>
</g>
</g>
</svg>
