<?xml version="1.0" encoding="UTF-8" standalone="no"?>
<!DOCTYPE svg PUBLIC "-//W3C//DTD SVG 1.1//EN"
 "http://www.w3.org/Graphics/SVG/1.1/DTD/svg11.dtd">
<!-- Generated by graphviz version 2.43.0 (0)
 -->
<!-- Title: dsf::sim::MonteCarloCase Pages: 1 -->
<svg width="154pt" height="314pt"
 viewBox="0.00 0.00 153.50 314.00" xmlns="http://www.w3.org/2000/svg" xmlns:xlink="http://www.w3.org/1999/xlink">
<g id="graph0" class="graph" transform="scale(1 1) rotate(0) translate(4 310)">
<title>dsf::sim::MonteCarloCase</title>
<!-- Node1 -->
<g id="Node000001" class="node">
<title>Node1</title>
<g id="a_Node000001"><a xlink:title="Monte Carlo case metadata.">
<polygon fill="#999999" stroke="#666666" points="141,-19 0,-19 0,0 141,0 141,-19"/>
<text text-anchor="middle" x="70.5" y="-7" font-family="Helvetica,sans-Serif" font-size="10.00">dsf::sim::MonteCarloCase</text>
</a>
</g>
</g>
<!-- Node2 -->
<g id="Node000002" class="node">
<title>Node2</title>
<g id="a_Node000002"><a xlink:title=" ">
<polygon fill="white" stroke="#666666" points="129.5,-96 11.5,-96 11.5,-66 129.5,-66 129.5,-96"/>
<text text-anchor="start" x="19.5" y="-84" font-family="Helvetica,sans-Serif" font-size="10.00">std::vector&lt; dsf::sim</text>
<text text-anchor="middle" x="70.5" y="-73" font-family="Helvetica,sans-Serif" font-size="10.00">::Dispersion &gt;</text>
</a>
</g>
</g>
<!-- Node2&#45;&gt;Node1 -->
<g id="edge1_Node000001_Node000002" class="edge">
<title>Node2&#45;&gt;Node1</title>
<g id="a_edge1_Node000001_Node000002"><a xlink:title=" ">
<path fill="none" stroke="#9a32cd" stroke-dasharray="5,2" d="M70.5,-55.56C70.5,-42.95 70.5,-28.35 70.5,-19.27"/>
<polygon fill="#9a32cd" stroke="#9a32cd" points="67,-55.94 70.5,-65.94 74,-55.94 67,-55.94"/>
</a>
</g>
<text text-anchor="middle" x="100" y="-40" font-family="Helvetica,sans-Serif" font-size="10.00" fill="grey"> dispersions</text>
</g>
<!-- Node3 -->
<g id="Node000003" class="node">
<title>Node3</title>
<g id="a_Node000003"><a xlink:href="structdsf_1_1sim_1_1Dispersion.html" target="_top" xlink:title="Specification for a single dispersed parameter.">
<polygon fill="white" stroke="#666666" points="127,-162 14,-162 14,-143 127,-143 127,-162"/>
<text text-anchor="middle" x="70.5" y="-150" font-family="Helvetica,sans-Serif" font-size="10.00">dsf::sim::Dispersion</text>
</a>
</g>
</g>
<!-- Node3&#45;&gt;Node2 -->
<g id="edge2_Node000002_Node000003" class="edge">
<title>Node3&#45;&gt;Node2</title>
<g id="a_edge2_Node000002_Node000003"><a xlink:title=" ">
<path fill="none" stroke="#9a32cd" stroke-dasharray="5,2" d="M70.5,-132.71C70.5,-121.19 70.5,-106.68 70.5,-96.14"/>
<polygon fill="#9a32cd" stroke="#9a32cd" points="67,-132.98 70.5,-142.98 74,-132.98 67,-132.98"/>
</a>
</g>
<text text-anchor="middle" x="95" y="-117" font-family="Helvetica,sans-Serif" font-size="10.00" fill="grey"> elements</text>
</g>
<!-- Node4 -->
<g id="Node000004" class="node">
<title>Node4</title>
<g id="a_Node000004"><a xlink:title=" ">
<polygon fill="white" stroke="#666666" points="103,-239 38,-239 38,-220 103,-220 103,-239"/>
<text text-anchor="middle" x="70.5" y="-227" font-family="Helvetica,sans-Serif" font-size="10.00">std::string</text>
</a>
</g>
</g>
<!-- Node4&#45;&gt;Node3 -->
<g id="edge3_Node000003_Node000004" class="edge">
<title>Node4&#45;&gt;Node3</title>
<g id="a_edge3_Node000003_Node000004"><a xlink:title=" ">
<path fill="none" stroke="#9a32cd" stroke-dasharray="5,2" d="M70.5,-209.52C70.5,-194.24 70.5,-173.48 70.5,-162"/>
<polygon fill="#9a32cd" stroke="#9a32cd" points="67,-209.9 70.5,-219.9 74,-209.9 67,-209.9"/>
</a>
</g>
<text text-anchor="middle" x="108" y="-194" font-family="Helvetica,sans-Serif" font-size="10.00" fill="grey"> block_id</text>
<text text-anchor="middle" x="108" y="-183" font-family="Helvetica,sans-Serif" font-size="10.00" fill="grey">property_name</text>
</g>
<!-- Node5 -->
<g id="Node000005" class="node">
<title>Node5</title>
<g id="a_Node000005"><a xlink:title=" ">
<polygon fill="white" stroke="#666666" points="122.5,-306 18.5,-306 18.5,-276 122.5,-276 122.5,-306"/>
<text text-anchor="start" x="26.5" y="-294" font-family="Helvetica,sans-Serif" font-size="10.00">std::basic_string&lt;</text>
<text text-anchor="middle" x="70.5" y="-283" font-family="Helvetica,sans-Serif" font-size="10.00"> Char &gt;</text>
</a>
</g>
</g>
<!-- Node5&#45;&gt;Node4 -->
<g id="edge4_Node000004_Node000005" class="edge">
<title>Node5&#45;&gt;Node4</title>
<g id="a_edge4_Node000004_Node000005"><a xlink:title=" ">
<path fill="none" stroke="#63b8ff" d="M70.5,-265.79C70.5,-256.36 70.5,-246.15 70.5,-239.16"/>
<polygon fill="#63b8ff" stroke="#63b8ff" points="67,-265.9 70.5,-275.9 74,-265.9 67,-265.9"/>
</a>
</g>
</g>
</g>
</svg>
