<?xml version="1.0" encoding="UTF-8" standalone="no"?>
<!DOCTYPE svg PUBLIC "-//W3C//DTD SVG 1.1//EN"
 "http://www.w3.org/Graphics/SVG/1.1/DTD/svg11.dtd">
<!-- Generated by graphviz version 2.43.0 (0)
 -->
<!-- Title: DSF/util/tbl/tablend.cpp Pages: 1 -->
<svg width="674pt" height="137pt"
 viewBox="0.00 0.00 673.50 137.00" xmlns="http://www.w3.org/2000/svg" xmlns:xlink="http://www.w3.org/1999/xlink">
<g id="graph0" class="graph" transform="scale(1 1) rotate(0) translate(4 133)">
<title>DSF/util/tbl/tablend.cpp</title>
<!-- Node1 -->
<g id="Node000001" class="node">
<title>Node1</title>
<g id="a_Node000001"><a xlink:title=" ">
<polygon fill="#999999" stroke="#666666" points="449,-129 318,-129 318,-110 449,-110 449,-129"/>
<text text-anchor="middle" x="383.5" y="-117" font-family="Helvetica,sans-Serif" font-size="10.00">DSF/util/tbl/tablend.cpp</text>
</a>
</g>
</g>
<!-- Node2 -->
<g id="Node000002" class="node">
<title>Node2</title>
<g id="a_Node000002"><a xlink:href="tablend_8h.html" target="_top" xlink:title="N&#45;dimensional regular&#45;grid interpolation table.">
<polygon fill="white" stroke="#666666" points="147.5,-74 85.5,-74 85.5,-55 147.5,-55 147.5,-74"/>
<text text-anchor="middle" x="116.5" y="-62" font-family="Helvetica,sans-Serif" font-size="10.00">tablend.h</text>
</a>
</g>
</g>
<!-- Node1&#45;&gt;Node2 -->
<g id="edge1_Node000001_Node000002" class="edge">
<title>Node1&#45;&gt;Node2</title>
<g id="a_edge1_Node000001_Node000002"><a xlink:title=" ">
<path fill="none" stroke="#63b8ff" d="M339.3,-109.93C295.77,-101.47 227.12,-88.03 157.64,-74.01"/>
<polygon fill="#63b8ff" stroke="#63b8ff" points="158.33,-70.58 147.83,-72.03 156.94,-77.44 158.33,-70.58"/>
</a>
</g>
</g>
<!-- Node7 -->
<g id="Node000007" class="node">
<title>Node7</title>
<g id="a_Node000007"><a xlink:title=" ">
<polygon fill="#e0e0e0" stroke="#999999" points="221,-74 166,-74 166,-55 221,-55 221,-74"/>
<text text-anchor="middle" x="193.5" y="-62" font-family="Helvetica,sans-Serif" font-size="10.00">fstream</text>
</a>
</g>
</g>
<!-- Node1&#45;&gt;Node7 -->
<g id="edge6_Node000001_Node000007" class="edge">
<title>Node1&#45;&gt;Node7</title>
<g id="a_edge6_Node000001_Node000007"><a xlink:title=" ">
<path fill="none" stroke="#63b8ff" d="M352.97,-109.98C319.84,-100.74 266.91,-85.98 231.2,-76.02"/>
<polygon fill="#63b8ff" stroke="#63b8ff" points="231.74,-72.53 221.17,-73.22 229.86,-79.28 231.74,-72.53"/>
</a>
</g>
</g>
<!-- Node8 -->
<g id="Node000008" class="node">
<title>Node8</title>
<g id="a_Node000008"><a xlink:title=" ">
<polygon fill="#e0e0e0" stroke="#999999" points="295.5,-74 239.5,-74 239.5,-55 295.5,-55 295.5,-74"/>
<text text-anchor="middle" x="267.5" y="-62" font-family="Helvetica,sans-Serif" font-size="10.00">sstream</text>
</a>
</g>
</g>
<!-- Node1&#45;&gt;Node8 -->
<g id="edge7_Node000001_Node000008" class="edge">
<title>Node1&#45;&gt;Node8</title>
<g id="a_edge7_Node000001_Node000008"><a xlink:title=" ">
<path fill="none" stroke="#63b8ff" d="M364.86,-109.98C346.2,-101.46 317.25,-88.23 295.76,-78.41"/>
<polygon fill="#63b8ff" stroke="#63b8ff" points="297.03,-75.14 286.48,-74.17 294.12,-81.51 297.03,-75.14"/>
</a>
</g>
</g>
<!-- Node9 -->
<g id="Node000009" class="node">
<title>Node9</title>
<g id="a_Node000009"><a xlink:title=" ">
<polygon fill="#e0e0e0" stroke="#999999" points="373.5,-74 313.5,-74 313.5,-55 373.5,-55 373.5,-74"/>
<text text-anchor="middle" x="343.5" y="-62" font-family="Helvetica,sans-Serif" font-size="10.00">iostream</text>
</a>
</g>
</g>
<!-- Node1&#45;&gt;Node9 -->
<g id="edge8_Node000001_Node000009" class="edge">
<title>Node1&#45;&gt;Node9</title>
<g id="a_edge8_Node000001_Node000009"><a xlink:title=" ">
<path fill="none" stroke="#63b8ff" d="M376.89,-109.75C371.24,-102.26 362.96,-91.28 356.05,-82.13"/>
<polygon fill="#63b8ff" stroke="#63b8ff" points="358.8,-79.96 349.98,-74.09 353.21,-84.18 358.8,-79.96"/>
</a>
</g>
</g>
<!-- Node10 -->
<g id="Node000010" class="node">
<title>Node10</title>
<g id="a_Node000010"><a xlink:title=" ">
<polygon fill="#e0e0e0" stroke="#999999" points="455.5,-74 391.5,-74 391.5,-55 455.5,-55 455.5,-74"/>
<text text-anchor="middle" x="423.5" y="-62" font-family="Helvetica,sans-Serif" font-size="10.00">algorithm</text>
</a>
</g>
</g>
<!-- Node1&#45;&gt;Node10 -->
<g id="edge9_Node000001_Node000010" class="edge">
<title>Node1&#45;&gt;Node10</title>
<g id="a_edge9_Node000001_Node000010"><a xlink:title=" ">
<path fill="none" stroke="#63b8ff" d="M390.11,-109.75C395.76,-102.26 404.04,-91.28 410.95,-82.13"/>
<polygon fill="#63b8ff" stroke="#63b8ff" points="413.79,-84.18 417.02,-74.09 408.2,-79.96 413.79,-84.18"/>
</a>
</g>
</g>
<!-- Node11 -->
<g id="Node000011" class="node">
<title>Node11</title>
<g id="a_Node000011"><a xlink:title=" ">
<polygon fill="#e0e0e0" stroke="#999999" points="521,-74 474,-74 474,-55 521,-55 521,-74"/>
<text text-anchor="middle" x="497.5" y="-62" font-family="Helvetica,sans-Serif" font-size="10.00">cmath</text>
</a>
</g>
</g>
<!-- Node1&#45;&gt;Node11 -->
<g id="edge10_Node000001_Node000011" class="edge">
<title>Node1&#45;&gt;Node11</title>
<g id="a_edge10_Node000001_Node000011"><a xlink:title=" ">
<path fill="none" stroke="#63b8ff" d="M401.82,-109.98C420.16,-101.46 448.61,-88.23 469.73,-78.41"/>
<polygon fill="#63b8ff" stroke="#63b8ff" points="471.26,-81.56 478.85,-74.17 468.31,-75.21 471.26,-81.56"/>
</a>
</g>
</g>
<!-- Node12 -->
<g id="Node000012" class="node">
<title>Node12</title>
<g id="a_Node000012"><a xlink:title=" ">
<polygon fill="#e0e0e0" stroke="#999999" points="595.5,-74 539.5,-74 539.5,-55 595.5,-55 595.5,-74"/>
<text text-anchor="middle" x="567.5" y="-62" font-family="Helvetica,sans-Serif" font-size="10.00">numeric</text>
</a>
</g>
</g>
<!-- Node1&#45;&gt;Node12 -->
<g id="edge11_Node000001_Node000012" class="edge">
<title>Node1&#45;&gt;Node12</title>
<g id="a_edge11_Node000001_Node000012"><a xlink:title=" ">
<path fill="none" stroke="#63b8ff" d="M413.06,-109.98C444.68,-100.88 494.94,-86.4 529.48,-76.45"/>
<polygon fill="#63b8ff" stroke="#63b8ff" points="530.58,-79.78 539.22,-73.65 528.64,-73.05 530.58,-79.78"/>
</a>
</g>
</g>
<!-- Node13 -->
<g id="Node000013" class="node">
<title>Node13</title>
<g id="a_Node000013"><a xlink:title=" ">
<polygon fill="#e0e0e0" stroke="#999999" points="665.5,-74 613.5,-74 613.5,-55 665.5,-55 665.5,-74"/>
<text text-anchor="middle" x="639.5" y="-62" font-family="Helvetica,sans-Serif" font-size="10.00">cassert</text>
</a>
</g>
</g>
<!-- Node1&#45;&gt;Node13 -->
<g id="edge12_Node000001_Node000013" class="edge">
<title>Node1&#45;&gt;Node13</title>
<g id="a_edge12_Node000001_Node000013"><a xlink:title=" ">
<path fill="none" stroke="#63b8ff" d="M428.48,-109.98C471.11,-101.79 537.19,-88.78 603.39,-74.18"/>
<polygon fill="#63b8ff" stroke="#63b8ff" points="604.15,-77.6 613.15,-72.02 602.63,-70.76 604.15,-77.6"/>
</a>
</g>
</g>
<!-- Node3 -->
<g id="Node000003" class="node">
<title>Node3</title>
<g id="a_Node000003"><a xlink:title=" ">
<polygon fill="#e0e0e0" stroke="#999999" points="47,-19 0,-19 0,0 47,0 47,-19"/>
<text text-anchor="middle" x="23.5" y="-7" font-family="Helvetica,sans-Serif" font-size="10.00">vector</text>
</a>
</g>
</g>
<!-- Node2&#45;&gt;Node3 -->
<g id="edge2_Node000002_Node000003" class="edge">
<title>Node2&#45;&gt;Node3</title>
<g id="a_edge2_Node000002_Node000003"><a xlink:title=" ">
<path fill="none" stroke="#63b8ff" d="M101.56,-54.98C87,-46.69 64.63,-33.94 47.57,-24.22"/>
<polygon fill="#63b8ff" stroke="#63b8ff" points="49.14,-21.08 38.71,-19.17 45.67,-27.16 49.14,-21.08"/>
</a>
</g>
</g>
<!-- Node4 -->
<g id="Node000004" class="node">
<title>Node4</title>
<g id="a_Node000004"><a xlink:title=" ">
<polygon fill="#e0e0e0" stroke="#999999" points="107.5,-19 65.5,-19 65.5,0 107.5,0 107.5,-19"/>
<text text-anchor="middle" x="86.5" y="-7" font-family="Helvetica,sans-Serif" font-size="10.00">array</text>
</a>
</g>
</g>
<!-- Node2&#45;&gt;Node4 -->
<g id="edge3_Node000002_Node000004" class="edge">
<title>Node2&#45;&gt;Node4</title>
<g id="a_edge3_Node000002_Node000004"><a xlink:title=" ">
<path fill="none" stroke="#63b8ff" d="M111.55,-54.75C107.44,-47.49 101.47,-36.95 96.4,-27.98"/>
<polygon fill="#63b8ff" stroke="#63b8ff" points="99.33,-26.07 91.36,-19.09 93.24,-29.52 99.33,-26.07"/>
</a>
</g>
</g>
<!-- Node5 -->
<g id="Node000005" class="node">
<title>Node5</title>
<g id="a_Node000005"><a xlink:title=" ">
<polygon fill="#e0e0e0" stroke="#999999" points="169.5,-19 125.5,-19 125.5,0 169.5,0 169.5,-19"/>
<text text-anchor="middle" x="147.5" y="-7" font-family="Helvetica,sans-Serif" font-size="10.00">string</text>
</a>
</g>
</g>
<!-- Node2&#45;&gt;Node5 -->
<g id="edge4_Node000002_Node000005" class="edge">
<title>Node2&#45;&gt;Node5</title>
<g id="a_edge4_Node000002_Node000005"><a xlink:title=" ">
<path fill="none" stroke="#63b8ff" d="M121.62,-54.75C125.86,-47.49 132.03,-36.95 137.28,-27.98"/>
<polygon fill="#63b8ff" stroke="#63b8ff" points="140.45,-29.49 142.48,-19.09 134.41,-25.95 140.45,-29.49"/>
</a>
</g>
</g>
<!-- Node6 -->
<g id="Node000006" class="node">
<title>Node6</title>
<g id="a_Node000006"><a xlink:title=" ">
<polygon fill="#e0e0e0" stroke="#999999" points="253,-19 188,-19 188,0 253,0 253,-19"/>
<text text-anchor="middle" x="220.5" y="-7" font-family="Helvetica,sans-Serif" font-size="10.00">stdexcept</text>
</a>
</g>
</g>
<!-- Node2&#45;&gt;Node6 -->
<g id="edge5_Node000002_Node000006" class="edge">
<title>Node2&#45;&gt;Node6</title>
<g id="a_edge5_Node000002_Node000006"><a xlink:title=" ">
<path fill="none" stroke="#63b8ff" d="M133.21,-54.98C149.71,-46.57 175.2,-33.59 194.38,-23.81"/>
<polygon fill="#63b8ff" stroke="#63b8ff" points="196.17,-26.83 203.49,-19.17 192.99,-20.59 196.17,-26.83"/>
</a>
</g>
</g>
</g>
</svg>
