<?xml version="1.0" encoding="UTF-8" standalone="no"?>
<!DOCTYPE svg PUBLIC "-//W3C//DTD SVG 1.1//EN"
 "http://www.w3.org/Graphics/SVG/1.1/DTD/svg11.dtd">
<!-- Generated by graphviz version 2.43.0 (0)
 -->
<!-- Title: DSF/sim/TClassDict.h Pages: 1 -->
<!--zoomable 258 -->

<svg id="main" version="1.1" xmlns="http://www.w3.org/2000/svg" xmlns:xlink="http://www.w3.org/1999/xlink" xml:space="preserve" onload="init(evt)">
<style type="text/css"><![CDATA[
.node, .edge {opacity: 0.7;}
.node.selected, .edge.selected {opacity: 1;}
.edge:hover path { stroke: red; }
.edge:hover polygon { stroke: red; fill: red; }
]]></style>

<defs>
  <circle id="rim" cx="0" cy="0" r="7"/>
  <circle id="rim2" cx="0" cy="0" r="3.5"/>
  <g id="zoomPlus">
    <use xlink:href="#rim" fill="#404040"><set attributeName="fill" to="#808080" begin="zoomplus.mouseover" end="zoomplus.mouseout"/></use>
    <path d="M-4,0h8M0,-4v8" fill="none" stroke="white" stroke-width="1.5" pointer-events="none"/>
  </g>
  <g id="zoomMin">
    <use xlink:href="#rim" fill="#404040"><set attributeName="fill" to="#808080" begin="zoomminus.mouseover" end="zoomminus.mouseout"/></use>
    <path d="M-4,0h8" fill="none" stroke="white" stroke-width="1.5" pointer-events="none"/>
  </g>
  <g id="arrowUp" transform="translate(30 24)">
    <use xlink:href="#rim"/>
    <path pointer-events="none" fill="none" stroke="white" stroke-width="1.5" d="M0,-3.0v7 M-2.5,-0.5L0,-3.0L2.5,-0.5"/>
  </g>
  <g id="arrowRight" transform="rotate(90) translate(36 -43)">
    <use xlink:href="#rim"/>
    <path pointer-events="none" fill="none" stroke="white" stroke-width="1.5" d="M0,-3.0v7 M-2.5,-0.5L0,-3.0L2.5,-0.5"/>
  </g>
  <g id="arrowDown" transform="rotate(180) translate(-30 -48)">
    <use xlink:href="#rim"/>
    <path pointer-events="none" fill="none" stroke="white" stroke-width="1.5" d="M0,-3.0v7 M-2.5,-0.5L0,-3.0L2.5,-0.5"/>
  </g>
  <g id="arrowLeft" transform="rotate(270) translate(-36 17)">
    <use xlink:href="#rim"/>
    <path pointer-events="none" fill="none" stroke="white" stroke-width="1.5" d="M0,-3.0v7 M-2.5,-0.5L0,-3.0L2.5,-0.5"/>
  </g>
  <g id="resetDef">
    <use xlink:href="#rim2" fill="#404040"><set attributeName="fill" to="#808080" begin="reset.mouseover" end="reset.mouseout"/></use>
  </g>
</defs>
<script type="application/ecmascript">
var viewWidth = 584;
var viewHeight = 258;
var sectionId = 'dynsection-1';
</script>
<script type="application/ecmascript" xlink:href="svg.min.js"/>
<svg id="graph" class="graph">
<g id="viewport">
<title>DSF/sim/TClassDict.h</title>
<!-- Node1 -->
<g id="Node000001" class="node">
<title>Node1</title>
<g id="a_Node000001"><a xlink:title="Template class factory and dictionary system.">
<polygon fill="#999999" stroke="#666666" points="422.33,-250 302.33,-250 302.33,-231 422.33,-231 422.33,-250"/>
<text text-anchor="middle" x="362.33" y="-238" font-family="Helvetica,sans-Serif" font-size="10.00">DSF/sim/TClassDict.h</text>
</a>
</g>
</g>
<!-- Node2 -->
<g id="Node000002" class="node">
<title>Node2</title>
<g id="a_Node000002"><a xlink:href="SimMetadata_8h.html" target="_top" xlink:title="Macros for decorating DSF blocks with metadata.">
<polygon fill="white" stroke="#666666" points="167.33,-195 33.33,-195 33.33,-176 167.33,-176 167.33,-195"/>
<text text-anchor="middle" x="100.33" y="-183" font-family="Helvetica,sans-Serif" font-size="10.00">DSF/sim/SimMetadata.h</text>
</a>
</g>
</g>
<!-- Node1&#45;&gt;Node2 -->
<g id="edge1_Node000001_Node000002" class="edge">
<title>Node1&#45;&gt;Node2</title>
<g id="a_edge1_Node000001_Node000002"><a xlink:title=" ">
<path fill="none" stroke="#63b8ff" d="M310.13,-228.94C261.02,-219.01 188.4,-204.31 142.75,-195.08"/>
<polygon fill="#63b8ff" stroke="#63b8ff" points="309.74,-232.43 320.23,-230.98 311.13,-225.57 309.74,-232.43"/>
</a>
</g>
</g>
<!-- Node3 -->
<g id="Node000003" class="node">
<title>Node3</title>
<g id="a_Node000003"><a xlink:href="TRefDict_8h.html" target="_top" xlink:title="Template reference functions for retrieving block instances.">
<polygon fill="white" stroke="#666666" points="296.83,-195 185.83,-195 185.83,-176 296.83,-176 296.83,-195"/>
<text text-anchor="middle" x="241.33" y="-183" font-family="Helvetica,sans-Serif" font-size="10.00">DSF/sim/TRefDict.h</text>
</a>
</g>
</g>
<!-- Node1&#45;&gt;Node3 -->
<g id="edge2_Node000001_Node000003" class="edge">
<title>Node1&#45;&gt;Node3</title>
<g id="a_edge2_Node000001_Node000003"><a xlink:title=" ">
<path fill="none" stroke="#63b8ff" d="M333.56,-226.9C311.21,-217.11 280.81,-203.79 261.12,-195.17"/>
<polygon fill="#63b8ff" stroke="#63b8ff" points="332.32,-230.18 342.89,-230.98 335.13,-223.77 332.32,-230.18"/>
</a>
</g>
</g>
<!-- Node4 -->
<g id="Node000004" class="node">
<title>Node4</title>
<g id="a_Node000004"><a xlink:href="block_8h.html" target="_top" xlink:title="Base class for all simulation components in the DSF framework.">
<polygon fill="white" stroke="#666666" points="409.83,-195 314.83,-195 314.83,-176 409.83,-176 409.83,-195"/>
<text text-anchor="middle" x="362.33" y="-183" font-family="Helvetica,sans-Serif" font-size="10.00">DSF/sim/block.h</text>
</a>
</g>
</g>
<!-- Node1&#45;&gt;Node4 -->
<g id="edge3_Node000001_Node000004" class="edge">
<title>Node1&#45;&gt;Node4</title>
<g id="a_edge3_Node000001_Node000004"><a xlink:title=" ">
<path fill="none" stroke="#63b8ff" d="M362.33,-220.66C362.33,-211.93 362.33,-201.99 362.33,-195.09"/>
<polygon fill="#63b8ff" stroke="#63b8ff" points="358.83,-220.75 362.33,-230.75 365.83,-220.75 358.83,-220.75"/>
</a>
</g>
</g>
<!-- Node8 -->
<g id="Node000008" class="node">
<title>Node8</title>
<g id="a_Node000008"><a xlink:href="monte__carlo_8h.html" target="_top" xlink:title="Monte Carlo dispersion engine for DSF simulations.">
<polygon fill="white" stroke="#666666" points="559.33,-134.5 429.33,-134.5 429.33,-115.5 559.33,-115.5 559.33,-134.5"/>
<text text-anchor="middle" x="494.33" y="-122.5" font-family="Helvetica,sans-Serif" font-size="10.00">DSF/sim/monte_carlo.h</text>
</a>
</g>
</g>
<!-- Node1&#45;&gt;Node8 -->
<g id="edge14_Node000001_Node000008" class="edge">
<title>Node1&#45;&gt;Node8</title>
<g id="a_edge14_Node000001_Node000008"><a xlink:title=" ">
<path fill="none" stroke="#63b8ff" d="M382.1,-224.69C393.21,-216.21 407.24,-205.25 419.33,-195 443.89,-174.17 471.44,-148.09 485.31,-134.74"/>
<polygon fill="#63b8ff" stroke="#63b8ff" points="379.76,-222.07 373.9,-230.9 383.99,-227.65 379.76,-222.07"/>
</a>
</g>
</g>
<!-- Node12 -->
<g id="Node000012" class="node">
<title>Node12</title>
<g id="a_Node000012"><a xlink:href="sim_8cpp.html" target="_top" xlink:title=" ">
<polygon fill="white" stroke="#666666" points="450.33,-19 352.33,-19 352.33,0 450.33,0 450.33,-19"/>
<text text-anchor="middle" x="401.33" y="-7" font-family="Helvetica,sans-Serif" font-size="10.00">DSF/sim/sim.cpp</text>
</a>
</g>
</g>
<!-- Node1&#45;&gt;Node12 -->
<g id="edge15_Node000001_Node000012" class="edge">
<title>Node1&#45;&gt;Node12</title>
<g id="a_edge15_Node000001_Node000012"><a xlink:title=" ">
<path fill="none" stroke="#63b8ff" d="M422.14,-228.56C470.84,-216.16 536.53,-190.67 568.33,-140 606.07,-79.87 491.34,-36.65 433.08,-19.13"/>
<polygon fill="#63b8ff" stroke="#63b8ff" points="421.23,-225.18 412.34,-230.94 422.88,-231.98 421.23,-225.18"/>
</a>
</g>
</g>
<!-- Node5 -->
<g id="Node000005" class="node">
<title>Node5</title>
<g id="a_Node000005"><a xlink:href="integratorRK4_8cpp.html" target="_top" xlink:title=" ">
<polygon fill="white" stroke="#666666" points="200.33,-19 52.33,-19 52.33,0 200.33,0 200.33,-19"/>
<text text-anchor="middle" x="126.33" y="-7" font-family="Helvetica,sans-Serif" font-size="10.00">DSF/sim/integratorRK4.cpp</text>
</a>
</g>
</g>
<!-- Node4&#45;&gt;Node5 -->
<g id="edge4_Node000004_Node000005" class="edge">
<title>Node4&#45;&gt;Node5</title>
<g id="a_edge4_Node000004_Node000005"><a xlink:title=" ">
<path fill="none" stroke="#63b8ff" d="M304.54,-176.04C224.92,-168.83 52.38,-187.47 10.33,-140 -30.2,-94.25 65.97,-39.85 107.94,-19.11"/>
<polygon fill="#63b8ff" stroke="#63b8ff" points="304.36,-179.54 314.68,-177.17 305.14,-172.58 304.36,-179.54"/>
</a>
</g>
</g>
<!-- Node6 -->
<g id="Node000006" class="node">
<title>Node6</title>
<g id="a_Node000006"><a xlink:href="integrator__rk45_8cpp.html" target="_top" xlink:title=" ">
<polygon fill="white" stroke="#666666" points="127.33,-140 19.33,-140 19.33,-110 127.33,-110 127.33,-140"/>
<text text-anchor="start" x="27.33" y="-128" font-family="Helvetica,sans-Serif" font-size="10.00">DSF/sim/integrator</text>
<text text-anchor="middle" x="73.33" y="-117" font-family="Helvetica,sans-Serif" font-size="10.00">_rk45.cpp</text>
</a>
</g>
</g>
<!-- Node4&#45;&gt;Node6 -->
<g id="edge5_Node000004_Node000006" class="edge">
<title>Node4&#45;&gt;Node6</title>
<g id="a_edge5_Node000004_Node000006"><a xlink:title=" ">
<path fill="none" stroke="#63b8ff" d="M307.22,-174.04C261.41,-165.25 194.55,-152.2 136.33,-140 133.48,-139.4 130.56,-138.78 127.61,-138.15"/>
<polygon fill="#63b8ff" stroke="#63b8ff" points="306.76,-177.51 317.24,-175.96 308.08,-170.64 306.76,-177.51"/>
</a>
</g>
</g>
<!-- Node7 -->
<g id="Node000007" class="node">
<title>Node7</title>
<g id="a_Node000007"><a xlink:href="integrator__verlet_8cpp.html" target="_top" xlink:title=" ">
<polygon fill="white" stroke="#666666" points="253.33,-140 145.33,-140 145.33,-110 253.33,-110 253.33,-140"/>
<text text-anchor="start" x="153.33" y="-128" font-family="Helvetica,sans-Serif" font-size="10.00">DSF/sim/integrator</text>
<text text-anchor="middle" x="199.33" y="-117" font-family="Helvetica,sans-Serif" font-size="10.00">_verlet.cpp</text>
</a>
</g>
</g>
<!-- Node4&#45;&gt;Node7 -->
<g id="edge6_Node000004_Node000007" class="edge">
<title>Node4&#45;&gt;Node7</title>
<g id="a_edge6_Node000004_Node000007"><a xlink:title=" ">
<path fill="none" stroke="#63b8ff" d="M329.12,-172.58C302.88,-163.16 266.2,-150 238.52,-140.06"/>
<polygon fill="#63b8ff" stroke="#63b8ff" points="328.03,-175.91 338.63,-175.99 330.4,-169.32 328.03,-175.91"/>
</a>
</g>
</g>
<!-- Node4&#45;&gt;Node8 -->
<g id="edge7_Node000004_Node000008" class="edge">
<title>Node4&#45;&gt;Node8</title>
<g id="a_edge7_Node000004_Node000008"><a xlink:title=" ">
<path fill="none" stroke="#63b8ff" d="M390.69,-171.93C416.17,-160.64 452.91,-144.36 475.11,-134.52"/>
<polygon fill="#63b8ff" stroke="#63b8ff" points="389.25,-168.74 381.52,-175.99 392.08,-175.14 389.25,-168.74"/>
</a>
</g>
</g>
<!-- Node9 -->
<g id="Node000009" class="node">
<title>Node9</title>
<g id="a_Node000009"><a xlink:href="output_8h.html" target="_top" xlink:title="CSV output handler for simulation telemetry.">
<polygon fill="white" stroke="#666666" points="372.83,-134.5 271.83,-134.5 271.83,-115.5 372.83,-115.5 372.83,-134.5"/>
<text text-anchor="middle" x="322.33" y="-122.5" font-family="Helvetica,sans-Serif" font-size="10.00">DSF/sim/output.h</text>
</a>
</g>
</g>
<!-- Node4&#45;&gt;Node9 -->
<g id="edge8_Node000004_Node000009" class="edge">
<title>Node4&#45;&gt;Node9</title>
<g id="a_edge8_Node000004_Node000009"><a xlink:title=" ">
<path fill="none" stroke="#63b8ff" d="M350.57,-167.3C343.24,-156.58 334.11,-143.23 328.26,-134.67"/>
<polygon fill="#63b8ff" stroke="#63b8ff" points="347.89,-169.59 356.43,-175.87 353.67,-165.64 347.89,-169.59"/>
</a>
</g>
</g>
<!-- Node4&#45;&gt;Node12 -->
<g id="edge13_Node000004_Node000012" class="edge">
<title>Node4&#45;&gt;Node12</title>
<g id="a_edge13_Node000004_Node000012"><a xlink:title=" ">
<path fill="none" stroke="#63b8ff" d="M371.62,-166.85C375.47,-158.85 379.66,-149.15 382.33,-140 395.26,-95.72 399.63,-40.24 400.89,-19.16"/>
<polygon fill="#63b8ff" stroke="#63b8ff" points="368.43,-165.4 367.06,-175.91 374.68,-168.55 368.43,-165.4"/>
</a>
</g>
</g>
<!-- Node10 -->
<g id="Node000010" class="node">
<title>Node10</title>
<g id="a_Node000010"><a xlink:href="output_8cpp.html" target="_top" xlink:title=" ">
<polygon fill="white" stroke="#666666" points="263.33,-74 151.33,-74 151.33,-55 263.33,-55 263.33,-74"/>
<text text-anchor="middle" x="207.33" y="-62" font-family="Helvetica,sans-Serif" font-size="10.00">DSF/sim/output.cpp</text>
</a>
</g>
</g>
<!-- Node9&#45;&gt;Node10 -->
<g id="edge9_Node000009_Node000010" class="edge">
<title>Node9&#45;&gt;Node10</title>
<g id="a_edge9_Node000009_Node000010"><a xlink:title=" ">
<path fill="none" stroke="#63b8ff" d="M296.24,-110.73C274.22,-99.53 243.34,-83.82 224.37,-74.17"/>
<polygon fill="#63b8ff" stroke="#63b8ff" points="294.86,-113.95 305.36,-115.37 298.03,-107.71 294.86,-113.95"/>
</a>
</g>
</g>
<!-- Node11 -->
<g id="Node000011" class="node">
<title>Node11</title>
<g id="a_Node000011"><a xlink:href="sim_8h.html" target="_top" xlink:title="Top&#45;level simulation executive.">
<polygon fill="white" stroke="#666666" points="368.83,-74 281.83,-74 281.83,-55 368.83,-55 368.83,-74"/>
<text text-anchor="middle" x="325.33" y="-62" font-family="Helvetica,sans-Serif" font-size="10.00">DSF/sim/sim.h</text>
</a>
</g>
</g>
<!-- Node9&#45;&gt;Node11 -->
<g id="edge10_Node000009_Node000011" class="edge">
<title>Node9&#45;&gt;Node11</title>
<g id="a_edge10_Node000009_Node000011"><a xlink:title=" ">
<path fill="none" stroke="#63b8ff" d="M323.3,-105.16C323.83,-94.74 324.47,-82.3 324.89,-74.17"/>
<polygon fill="#63b8ff" stroke="#63b8ff" points="319.79,-105.2 322.77,-115.37 326.78,-105.56 319.79,-105.2"/>
</a>
</g>
</g>
<!-- Node11&#45;&gt;Node5 -->
<g id="edge11_Node000011_Node000005" class="edge">
<title>Node11&#45;&gt;Node5</title>
<g id="a_edge11_Node000011_Node000005"><a xlink:title=" ">
<path fill="none" stroke="#63b8ff" d="M283.32,-52.31C246.08,-42.39 192.49,-28.12 158.55,-19.08"/>
<polygon fill="#63b8ff" stroke="#63b8ff" points="282.79,-55.79 293.36,-54.98 284.59,-49.03 282.79,-55.79"/>
</a>
</g>
</g>
<!-- Node11&#45;&gt;Node12 -->
<g id="edge12_Node000011_Node000012" class="edge">
<title>Node11&#45;&gt;Node12</title>
<g id="a_edge12_Node000011_Node000012"><a xlink:title=" ">
<path fill="none" stroke="#63b8ff" d="M345.91,-49.15C359.64,-39.57 377.25,-27.29 388.9,-19.17"/>
<polygon fill="#63b8ff" stroke="#63b8ff" points="343.74,-46.39 337.54,-54.98 347.74,-52.14 343.74,-46.39"/>
</a>
</g>
</g>
</g>
</svg>

<g id="navigator" transform="translate(0 0)" fill="#404254">
  <rect fill="#f2f5e9" fill-opacity="0.5" stroke="#606060" stroke-width=".5" x="0" y="0" width="60" height="60"/>
  <use id="zoomplus" xlink:href="#zoomPlus" x="17" y="9" onmousedown="handleZoom(evt,'in')"/>
  <use id="zoomminus" xlink:href="#zoomMin" x="42" y="9" onmousedown="handleZoom(evt,'out')"/>
  <use id="reset" xlink:href="#resetDef" x="30" y="36" onmousedown="handleReset()"/>
   <use id="arrowup" xlink:href="#arrowUp" x="0" y="0" onmousedown="handlePan(0,-1)"/>
  <use id="arrowright" xlink:href="#arrowRight" x="0" y="0" onmousedown="handlePan(1,0)"/>
  <use id="arrowdown" xlink:href="#arrowDown" x="0" y="0" onmousedown="handlePan(0,1)"/>
  <use id="arrowleft" xlink:href="#arrowLeft" x="0" y="0" onmousedown="handlePan(-1,0)"/>
</g>
<svg viewBox="0 0 15 15" width="100%" height="30px" preserveAspectRatio="xMaxYMin meet">
 <g id="arrow_out" transform="scale(0.3 0.3)">
  <a xlink:href="TClassDict_8h__dep__incl_org.svg" target="_base">
   <rect id="button" ry="5" rx="5" y="6" x="6" height="38" width="38"
        fill="#f2f5e9" fill-opacity="0.5" stroke="#606060" stroke-width="1.0"/>
   <path id="arrow"
     d="M 11.500037,31.436501 C 11.940474,20.09759 22.043105,11.32322 32.158766,21.979434 L 37.068811,17.246167 C 37.068811,17.246167 37.088388,32 37.088388,32 L 22.160133,31.978069 C 22.160133,31.978069 26.997745,27.140456 26.997745,27.140456 C 18.528582,18.264221 13.291696,25.230495 11.500037,31.436501 z"
     style="fill:#404040;"/>
  </a>
 </g>
</svg>

<style type='text/css'>
<![CDATA[
[data-mouse-over-selected='false'] { opacity: 0.7; }
[data-mouse-over-selected='true']  { opacity: 1.0; }
]]>
</style>
<script type="application/ecmascript"><![CDATA[
document.addEventListener('DOMContentLoaded', (event) => {
  highlightEdges();
  highlightAdjacentNodes();
});
]]></script>
</svg>
