<?xml version="1.0" encoding="UTF-8" standalone="no"?>
<!DOCTYPE svg PUBLIC "-//W3C//DTD SVG 1.1//EN"
 "http://www.w3.org/Graphics/SVG/1.1/DTD/svg11.dtd">
<!-- Generated by graphviz version 2.43.0 (0)
 -->
<!-- Title: DSF/sim/TIntDict.h Pages: 1 -->
<svg width="562pt" height="247pt"
 viewBox="0.00 0.00 562.00 247.00" xmlns="http://www.w3.org/2000/svg" xmlns:xlink="http://www.w3.org/1999/xlink">
<g id="graph0" class="graph" transform="scale(1 1) rotate(0) translate(4 243)">
<title>DSF/sim/TIntDict.h</title>
<!-- Node1 -->
<g id="Node000001" class="node">
<title>Node1</title>
<g id="a_Node000001"><a xlink:title="Integrand dictionary for numerical integration.">
<polygon fill="#999999" stroke="#666666" points="287,-239 180,-239 180,-220 287,-220 287,-239"/>
<text text-anchor="middle" x="233.5" y="-227" font-family="Helvetica,sans-Serif" font-size="10.00">DSF/sim/TIntDict.h</text>
</a>
</g>
</g>
<!-- Node2 -->
<g id="Node000002" class="node">
<title>Node2</title>
<g id="a_Node000002"><a xlink:title=" ">
<polygon fill="#e0e0e0" stroke="#999999" points="47,-184 0,-184 0,-165 47,-165 47,-184"/>
<text text-anchor="middle" x="23.5" y="-172" font-family="Helvetica,sans-Serif" font-size="10.00">vector</text>
</a>
</g>
</g>
<!-- Node1&#45;&gt;Node2 -->
<g id="edge1_Node000001_Node000002" class="edge">
<title>Node1&#45;&gt;Node2</title>
<g id="a_edge1_Node000001_Node000002"><a xlink:title=" ">
<path fill="none" stroke="#63b8ff" d="M198.67,-219.95C164.79,-211.6 111.62,-198.4 57.09,-184.38"/>
<polygon fill="#63b8ff" stroke="#63b8ff" points="57.81,-180.96 47.26,-181.85 56.07,-187.74 57.81,-180.96"/>
</a>
</g>
</g>
<!-- Node3 -->
<g id="Node000003" class="node">
<title>Node3</title>
<g id="a_Node000003"><a xlink:title=" ">
<polygon fill="#e0e0e0" stroke="#999999" points="122,-184 65,-184 65,-165 122,-165 122,-184"/>
<text text-anchor="middle" x="93.5" y="-172" font-family="Helvetica,sans-Serif" font-size="10.00">typeinfo</text>
</a>
</g>
</g>
<!-- Node1&#45;&gt;Node3 -->
<g id="edge2_Node000001_Node000003" class="edge">
<title>Node1&#45;&gt;Node3</title>
<g id="a_edge2_Node000001_Node000003"><a xlink:title=" ">
<path fill="none" stroke="#63b8ff" d="M211.01,-219.98C187.98,-211.27 151.96,-197.63 125.87,-187.75"/>
<polygon fill="#63b8ff" stroke="#63b8ff" points="126.99,-184.44 116.4,-184.17 124.52,-190.98 126.99,-184.44"/>
</a>
</g>
</g>
<!-- Node4 -->
<g id="Node000004" class="node">
<title>Node4</title>
<g id="a_Node000004"><a xlink:title=" ">
<polygon fill="#e0e0e0" stroke="#999999" points="205,-184 140,-184 140,-165 205,-165 205,-184"/>
<text text-anchor="middle" x="172.5" y="-172" font-family="Helvetica,sans-Serif" font-size="10.00">exception</text>
</a>
</g>
</g>
<!-- Node1&#45;&gt;Node4 -->
<g id="edge3_Node000001_Node000004" class="edge">
<title>Node1&#45;&gt;Node4</title>
<g id="a_edge3_Node000001_Node000004"><a xlink:title=" ">
<path fill="none" stroke="#63b8ff" d="M223.7,-219.98C214.68,-212.15 201.09,-200.34 190.18,-190.86"/>
<polygon fill="#63b8ff" stroke="#63b8ff" points="192.32,-188.09 182.48,-184.17 187.73,-193.37 192.32,-188.09"/>
</a>
</g>
</g>
<!-- Node5 -->
<g id="Node000005" class="node">
<title>Node5</title>
<g id="a_Node000005"><a xlink:title=" ">
<polygon fill="#e0e0e0" stroke="#999999" points="465.5,-19 405.5,-19 405.5,0 465.5,0 465.5,-19"/>
<text text-anchor="middle" x="435.5" y="-7" font-family="Helvetica,sans-Serif" font-size="10.00">iostream</text>
</a>
</g>
</g>
<!-- Node1&#45;&gt;Node5 -->
<g id="edge4_Node000001_Node000005" class="edge">
<title>Node1&#45;&gt;Node5</title>
<g id="a_edge4_Node000001_Node000005"><a xlink:title=" ">
<path fill="none" stroke="#63b8ff" d="M234.53,-219.61C236.36,-206.68 241.15,-182.32 252.5,-165 294.91,-100.29 372.36,-48.02 411.5,-24.3"/>
<polygon fill="#63b8ff" stroke="#63b8ff" points="413.33,-27.28 420.13,-19.15 409.75,-21.26 413.33,-27.28"/>
</a>
</g>
</g>
<!-- Node6 -->
<g id="Node000006" class="node">
<title>Node6</title>
<g id="a_Node000006"><a xlink:title=" ">
<polygon fill="#e0e0e0" stroke="#999999" points="305.5,-184 261.5,-184 261.5,-165 305.5,-165 305.5,-184"/>
<text text-anchor="middle" x="283.5" y="-172" font-family="Helvetica,sans-Serif" font-size="10.00">string</text>
</a>
</g>
</g>
<!-- Node1&#45;&gt;Node6 -->
<g id="edge5_Node000001_Node000006" class="edge">
<title>Node1&#45;&gt;Node6</title>
<g id="a_edge5_Node000001_Node000006"><a xlink:title=" ">
<path fill="none" stroke="#63b8ff" d="M241.76,-219.75C248.96,-212.11 259.61,-200.82 268.35,-191.56"/>
<polygon fill="#63b8ff" stroke="#63b8ff" points="271.08,-193.76 275.4,-184.09 265.99,-188.96 271.08,-193.76"/>
</a>
</g>
</g>
<!-- Node7 -->
<g id="Node000007" class="node">
<title>Node7</title>
<g id="a_Node000007"><a xlink:href="integrator__base_8h.html" target="_top" xlink:title="Abstract base class for numerical integrators.">
<polygon fill="white" stroke="#666666" points="425.5,-184 323.5,-184 323.5,-165 425.5,-165 425.5,-184"/>
<text text-anchor="middle" x="374.5" y="-172" font-family="Helvetica,sans-Serif" font-size="10.00">integrator_base.h</text>
</a>
</g>
</g>
<!-- Node1&#45;&gt;Node7 -->
<g id="edge6_Node000001_Node000007" class="edge">
<title>Node1&#45;&gt;Node7</title>
<g id="a_edge6_Node000001_Node000007"><a xlink:title=" ">
<path fill="none" stroke="#63b8ff" d="M256.15,-219.98C279.35,-211.27 315.62,-197.63 341.9,-187.75"/>
<polygon fill="#63b8ff" stroke="#63b8ff" points="343.3,-190.97 351.43,-184.17 340.84,-184.41 343.3,-190.97"/>
</a>
</g>
</g>
<!-- Node8 -->
<g id="Node000008" class="node">
<title>Node8</title>
<g id="a_Node000008"><a xlink:href="quat_8h.html" target="_top" xlink:title="Quaternion class for attitude representation.">
<polygon fill="white" stroke="#666666" points="547.5,-184 443.5,-184 443.5,-165 547.5,-165 547.5,-184"/>
<text text-anchor="middle" x="495.5" y="-172" font-family="Helvetica,sans-Serif" font-size="10.00">../util/math/quat.h</text>
</a>
</g>
</g>
<!-- Node1&#45;&gt;Node8 -->
<g id="edge7_Node000001_Node000008" class="edge">
<title>Node1&#45;&gt;Node8</title>
<g id="a_edge7_Node000001_Node000008"><a xlink:title=" ">
<path fill="none" stroke="#63b8ff" d="M275.59,-219.98C321.2,-210.76 394.02,-196.03 443.25,-186.07"/>
<polygon fill="#63b8ff" stroke="#63b8ff" points="443.97,-189.5 453.08,-184.08 442.58,-182.63 443.97,-189.5"/>
</a>
</g>
</g>
<!-- Node8&#45;&gt;Node5 -->
<g id="edge8_Node000008_Node000005" class="edge">
<title>Node8&#45;&gt;Node5</title>
<g id="a_edge8_Node000008_Node000005"><a xlink:title=" ">
<path fill="none" stroke="#63b8ff" d="M472.39,-164.98C456.91,-157.92 437.74,-146.23 428.5,-129 411.44,-97.19 421,-53.43 428.74,-28.97"/>
<polygon fill="#63b8ff" stroke="#63b8ff" points="432.16,-29.79 432.07,-19.2 425.53,-27.53 432.16,-29.79"/>
</a>
</g>
</g>
<!-- Node9 -->
<g id="Node000009" class="node">
<title>Node9</title>
<g id="a_Node000009"><a xlink:title=" ">
<polygon fill="#e0e0e0" stroke="#999999" points="485,-129 438,-129 438,-110 485,-110 485,-129"/>
<text text-anchor="middle" x="461.5" y="-117" font-family="Helvetica,sans-Serif" font-size="10.00">cmath</text>
</a>
</g>
</g>
<!-- Node8&#45;&gt;Node9 -->
<g id="edge9_Node000008_Node000009" class="edge">
<title>Node8&#45;&gt;Node9</title>
<g id="a_edge9_Node000008_Node000009"><a xlink:title=" ">
<path fill="none" stroke="#63b8ff" d="M489.89,-164.75C485.18,-157.42 478.33,-146.73 472.53,-137.7"/>
<polygon fill="#63b8ff" stroke="#63b8ff" points="475.36,-135.62 467.01,-129.09 469.46,-139.4 475.36,-135.62"/>
</a>
</g>
</g>
<!-- Node10 -->
<g id="Node000010" class="node">
<title>Node10</title>
<g id="a_Node000010"><a xlink:href="mat3_8h.html" target="_top" xlink:title="3x3 matrix class for rotation and transformation operations.">
<polygon fill="white" stroke="#666666" points="554,-129 503,-129 503,-110 554,-110 554,-129"/>
<text text-anchor="middle" x="528.5" y="-117" font-family="Helvetica,sans-Serif" font-size="10.00">mat3.h</text>
</a>
</g>
</g>
<!-- Node8&#45;&gt;Node10 -->
<g id="edge10_Node000008_Node000010" class="edge">
<title>Node8&#45;&gt;Node10</title>
<g id="a_edge10_Node000008_Node000010"><a xlink:title=" ">
<path fill="none" stroke="#63b8ff" d="M500.95,-164.75C505.51,-157.42 512.17,-146.73 517.79,-137.7"/>
<polygon fill="#63b8ff" stroke="#63b8ff" points="520.84,-139.43 523.15,-129.09 514.9,-135.73 520.84,-139.43"/>
</a>
</g>
</g>
<!-- Node10&#45;&gt;Node5 -->
<g id="edge11_Node000010_Node000005" class="edge">
<title>Node10&#45;&gt;Node5</title>
<g id="a_edge11_Node000010_Node000005"><a xlink:title=" ">
<path fill="none" stroke="#63b8ff" d="M520.18,-109.77C511.78,-100.9 498.52,-86.69 487.5,-74 473.98,-58.44 459.14,-40.2 448.79,-27.27"/>
<polygon fill="#63b8ff" stroke="#63b8ff" points="451.38,-24.9 442.41,-19.26 445.9,-29.26 451.38,-24.9"/>
</a>
</g>
</g>
<!-- Node11 -->
<g id="Node000011" class="node">
<title>Node11</title>
<g id="a_Node000011"><a xlink:href="vec3_8h.html" target="_top" xlink:title="3D vector class for simulation mathematics.">
<polygon fill="white" stroke="#666666" points="546,-74 497,-74 497,-55 546,-55 546,-74"/>
<text text-anchor="middle" x="521.5" y="-62" font-family="Helvetica,sans-Serif" font-size="10.00">vec3.h</text>
</a>
</g>
</g>
<!-- Node10&#45;&gt;Node11 -->
<g id="edge12_Node000010_Node000011" class="edge">
<title>Node10&#45;&gt;Node11</title>
<g id="a_edge12_Node000010_Node000011"><a xlink:title=" ">
<path fill="none" stroke="#63b8ff" d="M527.34,-109.75C526.43,-102.8 525.11,-92.85 523.96,-84.13"/>
<polygon fill="#63b8ff" stroke="#63b8ff" points="527.41,-83.54 522.63,-74.09 520.47,-84.46 527.41,-83.54"/>
</a>
</g>
</g>
<!-- Node11&#45;&gt;Node5 -->
<g id="edge13_Node000011_Node000005" class="edge">
<title>Node11&#45;&gt;Node5</title>
<g id="a_edge13_Node000011_Node000005"><a xlink:title=" ">
<path fill="none" stroke="#63b8ff" d="M507.68,-54.98C494.35,-46.77 473.92,-34.18 458.19,-24.49"/>
<polygon fill="#63b8ff" stroke="#63b8ff" points="459.92,-21.44 449.57,-19.17 456.25,-27.4 459.92,-21.44"/>
</a>
</g>
</g>
</g>
</svg>
