<?xml version="1.0" encoding="UTF-8" standalone="no"?>
<!DOCTYPE svg PUBLIC "-//W3C//DTD SVG 1.1//EN"
 "http://www.w3.org/Graphics/SVG/1.1/DTD/svg11.dtd">
<!-- Generated by graphviz version 2.43.0 (0)
 -->
<!-- Title: DSF/sim/TRefDict.h Pages: 1 -->
<svg width="781pt" height="357pt"
 viewBox="0.00 0.00 781.00 357.00" xmlns="http://www.w3.org/2000/svg" xmlns:xlink="http://www.w3.org/1999/xlink">
<g id="graph0" class="graph" transform="scale(1 1) rotate(0) translate(4 353)">
<title>DSF/sim/TRefDict.h</title>
<!-- Node1 -->
<g id="Node000001" class="node">
<title>Node1</title>
<g id="a_Node000001"><a xlink:title="Template reference functions for retrieving block instances.">
<polygon fill="#999999" stroke="#666666" points="416.5,-349 305.5,-349 305.5,-330 416.5,-330 416.5,-349"/>
<text text-anchor="middle" x="361" y="-337" font-family="Helvetica,sans-Serif" font-size="10.00">DSF/sim/TRefDict.h</text>
</a>
</g>
</g>
<!-- Node2 -->
<g id="Node000002" class="node">
<title>Node2</title>
<g id="a_Node000002"><a xlink:title=" ">
<polygon fill="#e0e0e0" stroke="#999999" points="75.5,-184 28.5,-184 28.5,-165 75.5,-165 75.5,-184"/>
<text text-anchor="middle" x="52" y="-172" font-family="Helvetica,sans-Serif" font-size="10.00">vector</text>
</a>
</g>
</g>
<!-- Node1&#45;&gt;Node2 -->
<g id="edge1_Node000001_Node000002" class="edge">
<title>Node1&#45;&gt;Node2</title>
<g id="a_edge1_Node000001_Node000002"><a xlink:title=" ">
<path fill="none" stroke="#63b8ff" d="M337.17,-329.93C314.78,-321.61 280.55,-308.19 252,-294 184.98,-260.69 110.12,-213.46 73.94,-189.96"/>
<polygon fill="#63b8ff" stroke="#63b8ff" points="75.48,-186.79 65.2,-184.25 71.66,-192.65 75.48,-186.79"/>
</a>
</g>
</g>
<!-- Node3 -->
<g id="Node000003" class="node">
<title>Node3</title>
<g id="a_Node000003"><a xlink:title=" ">
<polygon fill="#e0e0e0" stroke="#999999" points="150.5,-184 93.5,-184 93.5,-165 150.5,-165 150.5,-184"/>
<text text-anchor="middle" x="122" y="-172" font-family="Helvetica,sans-Serif" font-size="10.00">typeinfo</text>
</a>
</g>
</g>
<!-- Node1&#45;&gt;Node3 -->
<g id="edge2_Node000001_Node000003" class="edge">
<title>Node1&#45;&gt;Node3</title>
<g id="a_edge2_Node000001_Node000003"><a xlink:title=" ">
<path fill="none" stroke="#63b8ff" d="M345.48,-329.81C316.26,-313.26 251.4,-275.58 200,-239 178.39,-223.63 154.97,-204.14 139.49,-190.84"/>
<polygon fill="#63b8ff" stroke="#63b8ff" points="141.62,-188.05 131.77,-184.15 137.04,-193.34 141.62,-188.05"/>
</a>
</g>
</g>
<!-- Node4 -->
<g id="Node000004" class="node">
<title>Node4</title>
<g id="a_Node000004"><a xlink:title=" ">
<polygon fill="#e0e0e0" stroke="#999999" points="552.5,-184 487.5,-184 487.5,-165 552.5,-165 552.5,-184"/>
<text text-anchor="middle" x="520" y="-172" font-family="Helvetica,sans-Serif" font-size="10.00">exception</text>
</a>
</g>
</g>
<!-- Node1&#45;&gt;Node4 -->
<g id="edge3_Node000001_Node000004" class="edge">
<title>Node1&#45;&gt;Node4</title>
<g id="a_edge3_Node000001_Node000004"><a xlink:title=" ">
<path fill="none" stroke="#63b8ff" d="M372.18,-329.86C393.15,-313.39 439.3,-275.85 473,-239 486.41,-224.34 499.69,-205.94 508.69,-192.73"/>
<polygon fill="#63b8ff" stroke="#63b8ff" points="511.78,-194.41 514.44,-184.15 505.97,-190.51 511.78,-194.41"/>
</a>
</g>
</g>
<!-- Node5 -->
<g id="Node000005" class="node">
<title>Node5</title>
<g id="a_Node000005"><a xlink:title=" ">
<polygon fill="#e0e0e0" stroke="#999999" points="339,-19 279,-19 279,0 339,0 339,-19"/>
<text text-anchor="middle" x="309" y="-7" font-family="Helvetica,sans-Serif" font-size="10.00">iostream</text>
</a>
</g>
</g>
<!-- Node1&#45;&gt;Node5 -->
<g id="edge4_Node000001_Node000005" class="edge">
<title>Node1&#45;&gt;Node5</title>
<g id="a_edge4_Node000001_Node000005"><a xlink:title=" ">
<path fill="none" stroke="#63b8ff" d="M305.38,-333.48C204.12,-322.8 0,-293.47 0,-230.5 0,-230.5 0,-230.5 0,-118.5 0,-62.17 185.28,-28.32 268.9,-15.91"/>
<polygon fill="#63b8ff" stroke="#63b8ff" points="269.42,-19.37 278.81,-14.47 268.41,-12.45 269.42,-19.37"/>
</a>
</g>
</g>
<!-- Node6 -->
<g id="Node000006" class="node">
<title>Node6</title>
<g id="a_Node000006"><a xlink:title=" ">
<polygon fill="#e0e0e0" stroke="#999999" points="615,-184 571,-184 571,-165 615,-165 615,-184"/>
<text text-anchor="middle" x="593" y="-172" font-family="Helvetica,sans-Serif" font-size="10.00">string</text>
</a>
</g>
</g>
<!-- Node1&#45;&gt;Node6 -->
<g id="edge5_Node000001_Node000006" class="edge">
<title>Node1&#45;&gt;Node6</title>
<g id="a_edge5_Node000001_Node000006"><a xlink:title=" ">
<path fill="none" stroke="#63b8ff" d="M377.76,-329.98C394.04,-321.48 419.28,-307.75 440,-294 491.24,-259.99 547.44,-214.02 575.3,-190.59"/>
<polygon fill="#63b8ff" stroke="#63b8ff" points="577.62,-193.21 583,-184.08 573.1,-187.87 577.62,-193.21"/>
</a>
</g>
</g>
<!-- Node7 -->
<g id="Node000007" class="node">
<title>Node7</title>
<g id="a_Node000007"><a xlink:href="demangle_8h.html" target="_top" xlink:title="GCC/Clang ABI type name demangling utility.">
<polygon fill="white" stroke="#666666" points="711,-294 609,-294 609,-275 711,-275 711,-294"/>
<text text-anchor="middle" x="660" y="-282" font-family="Helvetica,sans-Serif" font-size="10.00">../util/demangle.h</text>
</a>
</g>
</g>
<!-- Node1&#45;&gt;Node7 -->
<g id="edge6_Node000001_Node000007" class="edge">
<title>Node1&#45;&gt;Node7</title>
<g id="a_edge6_Node000001_Node000007"><a xlink:title=" ">
<path fill="none" stroke="#63b8ff" d="M409.04,-329.98C461.41,-320.7 545.24,-305.84 601.43,-295.88"/>
<polygon fill="#63b8ff" stroke="#63b8ff" points="602.35,-299.27 611.58,-294.08 601.13,-292.38 602.35,-299.27"/>
</a>
</g>
</g>
<!-- Node10 -->
<g id="Node000010" class="node">
<title>Node10</title>
<g id="a_Node000010"><a xlink:href="TClassDict_8h.html" target="_top" xlink:title="Template class factory and dictionary system.">
<polygon fill="white" stroke="#666666" points="399.5,-294 322.5,-294 322.5,-275 399.5,-275 399.5,-294"/>
<text text-anchor="middle" x="361" y="-282" font-family="Helvetica,sans-Serif" font-size="10.00">TClassDict.h</text>
</a>
</g>
</g>
<!-- Node1&#45;&gt;Node10 -->
<g id="edge10_Node000001_Node000010" class="edge">
<title>Node1&#45;&gt;Node10</title>
<g id="a_edge10_Node000001_Node000010"><a xlink:title=" ">
<path fill="none" stroke="#63b8ff" d="M361,-329.75C361,-322.8 361,-312.85 361,-304.13"/>
<polygon fill="#63b8ff" stroke="#63b8ff" points="364.5,-304.09 361,-294.09 357.5,-304.09 364.5,-304.09"/>
</a>
</g>
</g>
<!-- Node7&#45;&gt;Node6 -->
<g id="edge9_Node000007_Node000006" class="edge">
<title>Node7&#45;&gt;Node6</title>
<g id="a_edge9_Node000007_Node000006"><a xlink:title=" ">
<path fill="none" stroke="#63b8ff" d="M653.85,-274.75C647.66,-265.85 637.92,-251.63 630,-239 620.38,-223.67 610.06,-205.83 602.77,-192.97"/>
<polygon fill="#63b8ff" stroke="#63b8ff" points="605.81,-191.23 597.85,-184.23 599.71,-194.67 605.81,-191.23"/>
</a>
</g>
</g>
<!-- Node8 -->
<g id="Node000008" class="node">
<title>Node8</title>
<g id="a_Node000008"><a xlink:title=" ">
<polygon fill="#e0e0e0" stroke="#999999" points="697,-239 639,-239 639,-220 697,-220 697,-239"/>
<text text-anchor="middle" x="668" y="-227" font-family="Helvetica,sans-Serif" font-size="10.00">cxxabi.h</text>
</a>
</g>
</g>
<!-- Node7&#45;&gt;Node8 -->
<g id="edge7_Node000007_Node000008" class="edge">
<title>Node7&#45;&gt;Node8</title>
<g id="a_edge7_Node000007_Node000008"><a xlink:title=" ">
<path fill="none" stroke="#63b8ff" d="M661.32,-274.75C662.37,-267.8 663.87,-257.85 665.19,-249.13"/>
<polygon fill="#63b8ff" stroke="#63b8ff" points="668.67,-249.5 666.7,-239.09 661.75,-248.45 668.67,-249.5"/>
</a>
</g>
</g>
<!-- Node9 -->
<g id="Node000009" class="node">
<title>Node9</title>
<g id="a_Node000009"><a xlink:title=" ">
<polygon fill="#e0e0e0" stroke="#999999" points="773,-239 715,-239 715,-220 773,-220 773,-239"/>
<text text-anchor="middle" x="744" y="-227" font-family="Helvetica,sans-Serif" font-size="10.00">memory</text>
</a>
</g>
</g>
<!-- Node7&#45;&gt;Node9 -->
<g id="edge8_Node000007_Node000009" class="edge">
<title>Node7&#45;&gt;Node9</title>
<g id="a_edge8_Node000007_Node000009"><a xlink:title=" ">
<path fill="none" stroke="#63b8ff" d="M673.5,-274.98C686.4,-266.84 706.1,-254.41 721.4,-244.76"/>
<polygon fill="#63b8ff" stroke="#63b8ff" points="723.67,-247.47 730.26,-239.17 719.93,-241.55 723.67,-247.47"/>
</a>
</g>
</g>
<!-- Node10&#45;&gt;Node2 -->
<g id="edge11_Node000010_Node000002" class="edge">
<title>Node10&#45;&gt;Node2</title>
<g id="a_edge11_Node000010_Node000002"><a xlink:title=" ">
<path fill="none" stroke="#63b8ff" d="M324.76,-274.98C291.84,-266.89 242.14,-253.79 200,-239 156.86,-223.86 108.45,-202.16 79.1,-188.45"/>
<polygon fill="#63b8ff" stroke="#63b8ff" points="80.45,-185.22 69.91,-184.13 77.47,-191.55 80.45,-185.22"/>
</a>
</g>
</g>
<!-- Node10&#45;&gt;Node5 -->
<g id="edge12_Node000010_Node000005" class="edge">
<title>Node10&#45;&gt;Node5</title>
<g id="a_edge12_Node000010_Node000005"><a xlink:title=" ">
<path fill="none" stroke="#63b8ff" d="M386.49,-274.97C403.9,-267.91 426.24,-256.22 440,-239 458.39,-215.99 459,-204.96 459,-175.5 459,-175.5 459,-175.5 459,-118.5 459,-64.2 393.47,-34.5 349.04,-20.6"/>
<polygon fill="#63b8ff" stroke="#63b8ff" points="349.94,-17.22 339.35,-17.72 347.94,-23.93 349.94,-17.22"/>
</a>
</g>
</g>
<!-- Node10&#45;&gt;Node6 -->
<g id="edge13_Node000010_Node000006" class="edge">
<title>Node10&#45;&gt;Node6</title>
<g id="a_edge13_Node000010_Node000006"><a xlink:title=" ">
<path fill="none" stroke="#63b8ff" d="M384.91,-274.86C407.81,-266.38 443.17,-252.77 473,-239 507.2,-223.22 545.45,-202.4 569.38,-188.98"/>
<polygon fill="#63b8ff" stroke="#63b8ff" points="571.12,-192.02 578.11,-184.05 567.68,-185.92 571.12,-192.02"/>
</a>
</g>
</g>
<!-- Node11 -->
<g id="Node000011" class="node">
<title>Node11</title>
<g id="a_Node000011"><a xlink:title=" ">
<polygon fill="#e0e0e0" stroke="#999999" points="431,-239 291,-239 291,-220 431,-220 431,-239"/>
<text text-anchor="middle" x="361" y="-227" font-family="Helvetica,sans-Serif" font-size="10.00">boost/core/demangle.hpp</text>
</a>
</g>
</g>
<!-- Node10&#45;&gt;Node11 -->
<g id="edge14_Node000010_Node000011" class="edge">
<title>Node10&#45;&gt;Node11</title>
<g id="a_edge14_Node000010_Node000011"><a xlink:title=" ">
<path fill="none" stroke="#63b8ff" d="M361,-274.75C361,-267.8 361,-257.85 361,-249.13"/>
<polygon fill="#63b8ff" stroke="#63b8ff" points="364.5,-249.09 361,-239.09 357.5,-249.09 364.5,-249.09"/>
</a>
</g>
</g>
<!-- Node12 -->
<g id="Node000012" class="node">
<title>Node12</title>
<g id="a_Node000012"><a xlink:href="TIntDict_8h.html" target="_top" xlink:title="Integrand dictionary for numerical integration.">
<polygon fill="white" stroke="#666666" points="273,-239 209,-239 209,-220 273,-220 273,-239"/>
<text text-anchor="middle" x="241" y="-227" font-family="Helvetica,sans-Serif" font-size="10.00">TIntDict.h</text>
</a>
</g>
</g>
<!-- Node10&#45;&gt;Node12 -->
<g id="edge15_Node000010_Node000012" class="edge">
<title>Node10&#45;&gt;Node12</title>
<g id="a_edge15_Node000010_Node000012"><a xlink:title=" ">
<path fill="none" stroke="#63b8ff" d="M341.72,-274.98C322.33,-266.42 292.19,-253.11 269.93,-243.28"/>
<polygon fill="#63b8ff" stroke="#63b8ff" points="271.19,-240.01 260.63,-239.17 268.36,-246.41 271.19,-240.01"/>
</a>
</g>
</g>
<!-- Node12&#45;&gt;Node2 -->
<g id="edge16_Node000012_Node000002" class="edge">
<title>Node12&#45;&gt;Node2</title>
<g id="a_edge16_Node000012_Node000002"><a xlink:title=" ">
<path fill="none" stroke="#63b8ff" d="M210.63,-219.98C176.44,-210.4 121.05,-194.86 85.59,-184.92"/>
<polygon fill="#63b8ff" stroke="#63b8ff" points="86.28,-181.48 75.71,-182.15 84.39,-188.22 86.28,-181.48"/>
</a>
</g>
</g>
<!-- Node12&#45;&gt;Node3 -->
<g id="edge17_Node000012_Node000003" class="edge">
<title>Node12&#45;&gt;Node3</title>
<g id="a_edge17_Node000012_Node000003"><a xlink:title=" ">
<path fill="none" stroke="#63b8ff" d="M221.88,-219.98C202.65,-211.42 172.77,-198.11 150.69,-188.28"/>
<polygon fill="#63b8ff" stroke="#63b8ff" points="152.03,-185.04 141.47,-184.17 149.18,-191.44 152.03,-185.04"/>
</a>
</g>
</g>
<!-- Node12&#45;&gt;Node4 -->
<g id="edge18_Node000012_Node000004" class="edge">
<title>Node12&#45;&gt;Node4</title>
<g id="a_edge18_Node000012_Node000004"><a xlink:title=" ">
<path fill="none" stroke="#63b8ff" d="M273.22,-221.76C276.18,-221.16 279.15,-220.56 282,-220 350.2,-206.56 429.6,-191.91 477.27,-183.23"/>
<polygon fill="#63b8ff" stroke="#63b8ff" points="478.03,-186.65 487.24,-181.42 476.77,-179.76 478.03,-186.65"/>
</a>
</g>
</g>
<!-- Node12&#45;&gt;Node5 -->
<g id="edge19_Node000012_Node000005" class="edge">
<title>Node12&#45;&gt;Node5</title>
<g id="a_edge19_Node000012_Node000005"><a xlink:title=" ">
<path fill="none" stroke="#63b8ff" d="M228.51,-219.93C218.13,-211.99 204.12,-199.14 198,-184 185.67,-153.51 184.59,-140.03 198,-110 215.46,-70.89 256.73,-40.77 283.73,-24.35"/>
<polygon fill="#63b8ff" stroke="#63b8ff" points="285.78,-27.21 292.63,-19.13 282.23,-21.18 285.78,-27.21"/>
</a>
</g>
</g>
<!-- Node12&#45;&gt;Node6 -->
<g id="edge20_Node000012_Node000006" class="edge">
<title>Node12&#45;&gt;Node6</title>
<g id="a_edge20_Node000012_Node000006"><a xlink:title=" ">
<path fill="none" stroke="#63b8ff" d="M273.19,-221.58C276.16,-221.02 279.13,-220.48 282,-220 402.6,-199.78 437.23,-208.19 560.89,-183.97"/>
<polygon fill="#63b8ff" stroke="#63b8ff" points="561.61,-187.39 570.74,-182 560.25,-180.52 561.61,-187.39"/>
</a>
</g>
</g>
<!-- Node13 -->
<g id="Node000013" class="node">
<title>Node13</title>
<g id="a_Node000013"><a xlink:href="integrator__base_8h.html" target="_top" xlink:title="Abstract base class for numerical integrators.">
<polygon fill="white" stroke="#666666" points="431,-184 329,-184 329,-165 431,-165 431,-184"/>
<text text-anchor="middle" x="380" y="-172" font-family="Helvetica,sans-Serif" font-size="10.00">integrator_base.h</text>
</a>
</g>
</g>
<!-- Node12&#45;&gt;Node13 -->
<g id="edge21_Node000012_Node000013" class="edge">
<title>Node12&#45;&gt;Node13</title>
<g id="a_edge21_Node000012_Node000013"><a xlink:title=" ">
<path fill="none" stroke="#63b8ff" d="M263.33,-219.98C286.2,-211.27 321.96,-197.63 347.86,-187.75"/>
<polygon fill="#63b8ff" stroke="#63b8ff" points="349.16,-191 357.26,-184.17 346.67,-184.46 349.16,-191"/>
</a>
</g>
</g>
<!-- Node14 -->
<g id="Node000014" class="node">
<title>Node14</title>
<g id="a_Node000014"><a xlink:href="quat_8h.html" target="_top" xlink:title="Quaternion class for attitude representation.">
<polygon fill="white" stroke="#666666" points="311,-184 207,-184 207,-165 311,-165 311,-184"/>
<text text-anchor="middle" x="259" y="-172" font-family="Helvetica,sans-Serif" font-size="10.00">../util/math/quat.h</text>
</a>
</g>
</g>
<!-- Node12&#45;&gt;Node14 -->
<g id="edge22_Node000012_Node000014" class="edge">
<title>Node12&#45;&gt;Node14</title>
<g id="a_edge22_Node000012_Node000014"><a xlink:title=" ">
<path fill="none" stroke="#63b8ff" d="M243.97,-219.75C246.36,-212.72 249.79,-202.62 252.77,-193.84"/>
<polygon fill="#63b8ff" stroke="#63b8ff" points="256.18,-194.68 256.08,-184.09 249.55,-192.43 256.18,-194.68"/>
</a>
</g>
</g>
<!-- Node14&#45;&gt;Node5 -->
<g id="edge23_Node000014_Node000005" class="edge">
<title>Node14&#45;&gt;Node5</title>
<g id="a_edge23_Node000014_Node000005"><a xlink:title=" ">
<path fill="none" stroke="#63b8ff" d="M261.69,-164.74C269.52,-139.2 292.46,-64.43 303.25,-29.23"/>
<polygon fill="#63b8ff" stroke="#63b8ff" points="306.71,-29.89 306.3,-19.31 300.02,-27.84 306.71,-29.89"/>
</a>
</g>
</g>
<!-- Node15 -->
<g id="Node000015" class="node">
<title>Node15</title>
<g id="a_Node000015"><a xlink:title=" ">
<polygon fill="#e0e0e0" stroke="#999999" points="254.5,-129 207.5,-129 207.5,-110 254.5,-110 254.5,-129"/>
<text text-anchor="middle" x="231" y="-117" font-family="Helvetica,sans-Serif" font-size="10.00">cmath</text>
</a>
</g>
</g>
<!-- Node14&#45;&gt;Node15 -->
<g id="edge24_Node000014_Node000015" class="edge">
<title>Node14&#45;&gt;Node15</title>
<g id="a_edge24_Node000014_Node000015"><a xlink:title=" ">
<path fill="none" stroke="#63b8ff" d="M254.38,-164.75C250.54,-157.49 244.98,-146.95 240.24,-137.98"/>
<polygon fill="#63b8ff" stroke="#63b8ff" points="243.3,-136.3 235.54,-129.09 237.11,-139.57 243.3,-136.3"/>
</a>
</g>
</g>
<!-- Node16 -->
<g id="Node000016" class="node">
<title>Node16</title>
<g id="a_Node000016"><a xlink:href="mat3_8h.html" target="_top" xlink:title="3x3 matrix class for rotation and transformation operations.">
<polygon fill="white" stroke="#666666" points="362.5,-129 311.5,-129 311.5,-110 362.5,-110 362.5,-129"/>
<text text-anchor="middle" x="337" y="-117" font-family="Helvetica,sans-Serif" font-size="10.00">mat3.h</text>
</a>
</g>
</g>
<!-- Node14&#45;&gt;Node16 -->
<g id="edge25_Node000014_Node000016" class="edge">
<title>Node14&#45;&gt;Node16</title>
<g id="a_edge25_Node000014_Node000016"><a xlink:title=" ">
<path fill="none" stroke="#63b8ff" d="M271.53,-164.98C283.4,-156.92 301.46,-144.65 315.61,-135.03"/>
<polygon fill="#63b8ff" stroke="#63b8ff" points="317.94,-137.69 324.24,-129.17 314,-131.9 317.94,-137.69"/>
</a>
</g>
</g>
<!-- Node16&#45;&gt;Node5 -->
<g id="edge26_Node000016_Node000005" class="edge">
<title>Node16&#45;&gt;Node5</title>
<g id="a_edge26_Node000016_Node000005"><a xlink:title=" ">
<path fill="none" stroke="#63b8ff" d="M346.85,-109.87C359.55,-97.66 378.88,-74.63 369,-55 362.31,-41.71 349.56,-31.39 337.53,-24.05"/>
<polygon fill="#63b8ff" stroke="#63b8ff" points="339.01,-20.87 328.58,-19.02 335.58,-26.97 339.01,-20.87"/>
</a>
</g>
</g>
<!-- Node17 -->
<g id="Node000017" class="node">
<title>Node17</title>
<g id="a_Node000017"><a xlink:href="vec3_8h.html" target="_top" xlink:title="3D vector class for simulation mathematics.">
<polygon fill="white" stroke="#666666" points="360.5,-74 311.5,-74 311.5,-55 360.5,-55 360.5,-74"/>
<text text-anchor="middle" x="336" y="-62" font-family="Helvetica,sans-Serif" font-size="10.00">vec3.h</text>
</a>
</g>
</g>
<!-- Node16&#45;&gt;Node17 -->
<g id="edge27_Node000016_Node000017" class="edge">
<title>Node16&#45;&gt;Node17</title>
<g id="a_edge27_Node000016_Node000017"><a xlink:title=" ">
<path fill="none" stroke="#63b8ff" d="M336.83,-109.75C336.7,-102.8 336.52,-92.85 336.35,-84.13"/>
<polygon fill="#63b8ff" stroke="#63b8ff" points="339.85,-84.02 336.16,-74.09 332.85,-84.15 339.85,-84.02"/>
</a>
</g>
</g>
<!-- Node17&#45;&gt;Node5 -->
<g id="edge28_Node000017_Node000005" class="edge">
<title>Node17&#45;&gt;Node5</title>
<g id="a_edge28_Node000017_Node000005"><a xlink:title=" ">
<path fill="none" stroke="#63b8ff" d="M331.54,-54.75C327.88,-47.57 322.59,-37.18 318.05,-28.27"/>
<polygon fill="#63b8ff" stroke="#63b8ff" points="321.03,-26.41 313.38,-19.09 314.8,-29.59 321.03,-26.41"/>
</a>
</g>
</g>
</g>
</svg>
